<?xml version="1.0" encoding="UTF-8" standalone="no"?>
<svg width="361px" height="142px" viewBox="0 0 361 142" version="1.1" xmlns="http://www.w3.org/2000/svg" xmlns:xlink="http://www.w3.org/1999/xlink" xmlns:sketch="http://www.bohemiancoding.com/sketch/ns">
    <!-- Generator: Sketch 3.2.2 (9983) - http://www.bohemiancoding.com/sketch -->
    <title>Type something</title>
    <desc>Created with Sketch.</desc>
    <defs>
        <linearGradient x1="50%" y1="0%" x2="50%" y2="100%" id="linearGradient-1">
            <stop stop-color="#8F305D" offset="0%"></stop>
            <stop stop-color="#2D348A" offset="100%"></stop>
        </linearGradient>
    </defs>
    <g id="Page-1" stroke="none" stroke-width="1" fill="none" fill-rule="evenodd" sketch:type="MSPage">
        <path d="M85.77,3.5 L85.77,24.365 L28.245,24.365 L28.245,57.905 C33.9650286,54.7849844 40.4649636,53.225 47.745,53.225 C60.4850637,53.225 71.4699539,57.0599616 80.7,64.73 C89.9300461,72.4000383 94.545,82.7999344 94.545,95.93 C94.545,109.060066 89.7350481,119.947457 80.115,128.5925 C70.4949519,137.237543 58.6650702,141.56 44.625,141.56 C26.2949084,141.56 11.6700546,135.450061 0.75,123.23 L13.035,106.46 C14.0750052,107.500005 15.4724912,108.734993 17.2275,110.165 C18.9825088,111.595007 22.5899727,113.512488 28.05,115.9175 C33.5100273,118.322512 39.4899675,119.525 45.99,119.525 C52.4900325,119.525 58.4049733,117.57502 63.735,113.675 C69.0650267,109.77498 71.73,104.087537 71.73,96.6125 C71.73,89.1374626 68.9025283,83.3525205 63.2475,79.2575 C57.5924717,75.1624795 50.4425432,73.115 41.7975,73.115 C33.1524568,73.115 24.930039,75.2599786 17.13,79.55 L7.38,69.02 L7.38,3.5 L85.77,3.5 Z M137.64,70.97 C137.64,86.1800761 140.337473,98.4649532 145.7325,107.825 C151.127527,117.185047 159.544943,121.865 170.985,121.865 C182.425057,121.865 190.777474,117.217546 196.0425,107.9225 C201.307526,98.6274535 203.94,86.3100767 203.94,70.97 C203.94,55.6299233 201.307526,43.3125465 196.0425,34.0175 C190.777474,24.7224535 182.425057,20.075 170.985,20.075 C159.544943,20.075 151.127527,24.7549532 145.7325,34.115 C140.337473,43.4750468 137.64,55.759924 137.64,70.97 L137.64,70.97 Z M115.41,70.97 C115.41,49.5198927 120.024954,32.392564 129.255,19.5875 C138.485046,6.78243597 152.394907,0.38 170.985,0.38 C189.575093,0.38 203.484954,6.78243597 212.715,19.5875 C221.945046,32.392564 226.56,49.5198927 226.56,70.97 C226.56,92.4201073 221.945046,109.547436 212.715,122.3525 C203.484954,135.157564 189.575093,141.56 170.985,141.56 C152.394907,141.56 138.485046,135.157564 129.255,122.3525 C120.024954,109.547436 115.41,92.4201073 115.41,70.97 L115.41,70.97 Z M271.8,70.97 C271.8,86.1800761 274.497473,98.4649532 279.8925,107.825 C285.287527,117.185047 293.704943,121.865 305.145,121.865 C316.585057,121.865 324.937474,117.217546 330.2025,107.9225 C335.467526,98.6274535 338.1,86.3100767 338.1,70.97 C338.1,55.6299233 335.467526,43.3125465 330.2025,34.0175 C324.937474,24.7224535 316.585057,20.075 305.145,20.075 C293.704943,20.075 285.287527,24.7549532 279.8925,34.115 C274.497473,43.4750468 271.8,55.759924 271.8,70.97 L271.8,70.97 Z M249.57,70.97 C249.57,49.5198927 254.184954,32.392564 263.415,19.5875 C272.645046,6.78243597 286.554907,0.38 305.145,0.38 C323.735093,0.38 337.644954,6.78243597 346.875,19.5875 C356.105046,32.392564 360.72,49.5198927 360.72,70.97 C360.72,92.4201073 356.105046,109.547436 346.875,122.3525 C337.644954,135.157564 323.735093,141.56 305.145,141.56 C286.554907,141.56 272.645046,135.157564 263.415,122.3525 C254.184954,109.547436 249.57,92.4201073 249.57,70.97 L249.57,70.97 Z" id="Type-something" fill="url(#linearGradient-1)" sketch:type="MSShapeGroup"></path>
    </g>
</svg>