<?xml version="1.0" encoding="UTF-8" standalone="no"?>
<svg width="343px" height="142px" viewBox="0 0 343 142" version="1.1" xmlns="http://www.w3.org/2000/svg" xmlns:xlink="http://www.w3.org/1999/xlink" xmlns:sketch="http://www.bohemiancoding.com/sketch/ns">
    <defs>
        <linearGradient x1="50%" y1="0%" x2="50%" y2="100%" id="linearGradient-1">
            <stop stop-color="#DE0E1B" offset="0%"></stop>
            <stop stop-color="#8F305E" offset="100%"></stop>
        </linearGradient>
    </defs>
    <g id="Page-1" stroke="none" stroke-width="1" fill="none" fill-rule="evenodd" sketch:type="MSPage">
        <path d="M58.715,84.815 L58.715,59.855 L80.555,59.855 L80.555,84.815 L96.935,84.815 L96.935,105.68 L80.555,105.68 L80.555,140 L58.715,140 L58.715,105.68 L0.215,105.68 L0.215,85.4 L50.33,3.695 L75.485,3.695 L26.15,84.815 L58.715,84.815 Z M138.275,70.97 C138.275,86.1800761 140.972473,98.4649532 146.3675,107.825 C151.762527,117.185047 160.179943,121.865 171.62,121.865 C183.060057,121.865 191.412474,117.217546 196.6775,107.9225 C201.942526,98.6274535 204.575,86.3100767 204.575,70.97 C204.575,55.6299233 201.942526,43.3125465 196.6775,34.0175 C191.412474,24.7224535 183.060057,20.075 171.62,20.075 C160.179943,20.075 151.762527,24.7549532 146.3675,34.115 C140.972473,43.4750468 138.275,55.759924 138.275,70.97 L138.275,70.97 Z M116.045,70.97 C116.045,49.5198928 120.659954,32.392564 129.89,19.5875 C139.120046,6.78243597 153.029907,0.38 171.62,0.38 C190.210093,0.38 204.119954,6.78243597 213.35,19.5875 C222.580046,32.392564 227.195,49.5198928 227.195,70.97 C227.195,92.4201073 222.580046,109.547436 213.35,122.3525 C204.119954,135.157564 190.210093,141.56 171.62,141.56 C153.029907,141.56 139.120046,135.157564 129.89,122.3525 C120.659954,109.547436 116.045,92.4201073 116.045,70.97 L116.045,70.97 Z M304.415,84.815 L304.415,59.855 L326.255,59.855 L326.255,84.815 L342.635,84.815 L342.635,105.68 L326.255,105.68 L326.255,140 L304.415,140 L304.415,105.68 L245.915,105.68 L245.915,85.4 L296.03,3.695 L321.185,3.695 L271.85,84.815 L304.415,84.815 Z" id="Type-something" fill="url(#linearGradient-1)" sketch:type="MSShapeGroup"></path>
    </g>
</svg>