<?xml version="1.0" encoding="utf-8"?>
<!-- Generator: Adobe Illustrator 15.0.2, SVG Export Plug-In . SVG Version: 6.00 Build 0)  -->
<!DOCTYPE svg PUBLIC "-//W3C//DTD SVG 1.1//EN" "http://www.w3.org/Graphics/SVG/1.1/DTD/svg11.dtd">
<svg version="1.1" id="Layer_1" xmlns="http://www.w3.org/2000/svg" xmlns:xlink="http://www.w3.org/1999/xlink" x="0px" y="0px"
	 width="30px" height="29.49px" viewBox="0 0 30 29.49" enable-background="new 0 0 30 29.49" xml:space="preserve">
<g>
	<g>
		<path fill="#9E9E9E" d="M26.416,9.831l3.109-4.007c0.207-0.259,0.259-0.587,0.189-0.898c-0.086-0.312-0.311-0.57-0.604-0.691
			L19.057,0.088c-0.432-0.172-0.933-0.052-1.209,0.329l-2.884,3.696L12.08,0.399c-0.294-0.38-0.795-0.501-1.227-0.311L0.801,4.407
			C0.507,4.528,0.282,4.804,0.196,5.115c-0.086,0.311,0,0.656,0.208,0.898l3.109,3.817l-3.316,4.542
			c-0.19,0.259-0.242,0.604-0.155,0.915c0.086,0.312,0.328,0.553,0.639,0.674l3.022,1.123v7.307c0,0.432,0.259,0.812,0.657,0.967
			L14.636,29.4c0.121,0.052,0.259,0.069,0.38,0.069c0.121,0,0.259-0.018,0.38-0.069l10.277-4.042
			c0.396-0.155,0.656-0.535,0.656-0.967V17.05l2.953-1.088c0.312-0.121,0.536-0.362,0.64-0.674c0.104-0.311,0.034-0.656-0.155-0.915
			L26.416,9.831z M18.989,2.3l8.065,3.316l-2.383,3.057l-8.188-3.161L18.989,2.3z M14.999,12.68L7.52,10.003l7.22-2.937l7.669,2.954
			L14.999,12.68z M10.922,2.316l2.401,3.092L5.239,8.69L2.873,5.789L10.922,2.316z M4.998,11.298l8.326,2.988l-2.436,3.248
			l-8.222-3.04L4.998,11.298z M24.24,23.683l-9.241,3.645l-9.241-3.645v-5.838l5.147,1.9c0.121,0.034,0.242,0.069,0.363,0.069
			c0.311,0,0.622-0.156,0.829-0.415l2.867-3.835l2.868,3.835c0.207,0.259,0.518,0.415,0.829,0.415c0.121,0,0.241-0.018,0.362-0.069
			l5.217-1.918V23.683z M19.023,17.534l-2.418-3.213l8.325-3.005l2.314,3.178L19.023,17.534z M19.023,17.534"/>
	</g>
</g>
</svg>
