<?xml version="1.0" encoding="utf-8"?>
<!-- Generator: Adobe Illustrator 15.0.2, SVG Export Plug-In . SVG Version: 6.00 Build 0)  -->
<!DOCTYPE svg PUBLIC "-//W3C//DTD SVG 1.1//EN" "http://www.w3.org/Graphics/SVG/1.1/DTD/svg11.dtd">
<svg version="1.1" id="Layer_1" xmlns="http://www.w3.org/2000/svg" xmlns:xlink="http://www.w3.org/1999/xlink" x="0px" y="0px"
	 width="30px" height="30px" viewBox="0 0 30 30" enable-background="new 0 0 30 30" xml:space="preserve">
<g>
	<g>
		<path fill="#9D9D9D" d="M29.945,16.025c-0.083-0.155-0.243-0.252-0.419-0.252h-4.572l-2.45-3.745v0l-0.492-0.752
			c-0.689-1.053-1.853-1.682-3.111-1.682h-0.379l-1.486-2.973c-0.117-0.234-0.401-0.329-0.636-0.212
			c-0.234,0.117-0.329,0.402-0.212,0.636l1.274,2.549h-3.277c-0.126,0-0.247,0.05-0.335,0.139l-0.67,0.67H9.528l-0.67-0.67
			C8.77,9.644,8.649,9.594,8.523,9.594H7.276L6.557,6.717c-0.052-0.21-0.242-0.358-0.459-0.358H3.671
			c-0.262,0-0.474,0.212-0.474,0.474v2.761H2.27c-0.521,0-0.976,0.37-1.083,0.878l-0.799,3.81c0,0.001,0,0.003,0,0.004l-0.351,1.671
			C0,16.133-0.009,16.313,0.009,16.492l0.592,5.755c0.025,0.241,0.229,0.425,0.471,0.425H1.58v0.335
			c0,0.262,0.212,0.474,0.474,0.474h23.453c0.262,0,0.474-0.212,0.474-0.474c0-0.434,0.129-0.854,0.372-1.214l3.566-5.28
			C30.017,16.367,30.027,16.18,29.945,16.025L29.945,16.025z M25.567,21.263c-0.261,0.385-0.429,0.817-0.498,1.271H2.527v-0.335
			c0-0.126-0.05-0.246-0.139-0.335s-0.209-0.139-0.335-0.139H1.5l-0.265-2.577h24.271c0.262,0,0.474-0.212,0.474-0.474
			c0-0.263-0.212-0.475-0.474-0.475H1.138l-0.152-1.478h18.462c0.262,0,0.474-0.213,0.474-0.475s-0.212-0.474-0.474-0.474H1.044
			l0.193-0.92h6.478c0.262,0,0.474-0.213,0.474-0.474c0-0.262-0.212-0.474-0.474-0.474H1.436l0.239-1.139h6.04
			c0.262,0,0.474-0.212,0.474-0.474s-0.212-0.474-0.474-0.474H1.874l0.241-1.153c0.016-0.072,0.081-0.125,0.155-0.125h3.019
			c0.262,0,0.474-0.212,0.474-0.474S5.55,9.594,5.289,9.594H4.145V7.307h1.582l0.719,2.876c0,0.002,0.001,0.003,0.002,0.005
			c0.006,0.024,0.014,0.047,0.023,0.069c0.001,0.002,0.002,0.005,0.003,0.007c0.01,0.021,0.021,0.041,0.033,0.06
			c0.001,0.002,0.002,0.004,0.004,0.006c0.013,0.019,0.027,0.036,0.042,0.053c0.003,0.004,0.007,0.008,0.01,0.011
			c0.015,0.016,0.031,0.031,0.048,0.044c0.003,0.002,0.007,0.005,0.01,0.007c0.037,0.028,0.079,0.05,0.123,0.066
			c0.003,0.001,0.007,0.002,0.01,0.003c0.021,0.007,0.042,0.013,0.065,0.017c0.005,0.001,0.01,0.001,0.015,0.002
			c0.021,0.003,0.043,0.005,0.065,0.006c0.001,0,0.003,0,0.004,0c0,0,0.001,0,0.002,0h1.419l0.67,0.67
			C9.086,11.3,9.207,11.35,9.332,11.35h4.043c0.126,0,0.246-0.05,0.335-0.139l0.67-0.67h3.845c0.001,0,0.002,0,0.002,0
			c0.001,0,0.002,0,0.002,0h0.67c0.938,0,1.805,0.468,2.318,1.253l0.016,0.024h-2.197c-0.262,0-0.474,0.212-0.474,0.474
			s0.212,0.474,0.474,0.474h2.817l0.745,1.139h-3.563c-0.262,0-0.474,0.212-0.474,0.474c0,0.262,0.212,0.474,0.474,0.474h4.183
			l0.603,0.92h-2.358c-0.263,0-0.475,0.212-0.475,0.474c0,0.263,0.212,0.475,0.475,0.475h3.233c0.001,0,0.001,0,0.001,0
			c0.001,0,0.001,0,0.001,0h3.936L25.567,21.263z M17.084,12.293c0,0.262-0.212,0.474-0.474,0.474h-6.47
			c-0.262,0-0.474-0.212-0.474-0.474s0.212-0.474,0.474-0.474h6.47C16.873,11.819,17.084,12.031,17.084,12.293L17.084,12.293z
			 M17.084,14.379c0,0.261-0.212,0.474-0.474,0.474h-6.47c-0.262,0-0.474-0.213-0.474-0.474c0-0.262,0.212-0.474,0.474-0.474h6.47
			C16.873,13.906,17.084,14.118,17.084,14.379L17.084,14.379z M17.084,14.379"/>
	</g>
</g>
</svg>
