<?xml version="1.0" encoding="utf-8"?>
<!-- Generator: Adobe Illustrator 15.0.2, SVG Export Plug-In . SVG Version: 6.00 Build 0)  -->
<!DOCTYPE svg PUBLIC "-//W3C//DTD SVG 1.1//EN" "http://www.w3.org/Graphics/SVG/1.1/DTD/svg11.dtd">
<svg version="1.1" id="Layer_1" xmlns="http://www.w3.org/2000/svg" xmlns:xlink="http://www.w3.org/1999/xlink" x="0px" y="0px"
	 width="30px" height="29.469px" viewBox="0 0 30 29.469" enable-background="new 0 0 30 29.469" xml:space="preserve">
<g>
	<path fill="#666666" d="M7.331,6.869H7.76c0.652,0,1.181-0.529,1.181-1.181V1.21c0-0.652-0.529-1.181-1.181-1.181H7.331
		c-0.652,0-1.181,0.529-1.181,1.181v4.478C6.15,6.34,6.679,6.869,7.331,6.869L7.331,6.869z M7.331,6.869"/>
	<g>
		<path fill="#666666" d="M22.479,6.84h0.43c0.652,0,1.181-0.529,1.181-1.181V1.181C24.089,0.529,23.561,0,22.908,0h-0.43
			c-0.652,0-1.181,0.529-1.181,1.181v4.478C21.298,6.311,21.827,6.84,22.479,6.84L22.479,6.84z M22.479,6.84"/>
		<path fill="#666666" d="M28.08,2.429h-3.031v3.54c0,1.18-0.96,1.832-2.141,1.832h-0.43c-1.18,0-2.141-0.96-2.141-2.141v-3.23
			H9.901v3.259c0,1.181-0.961,2.141-2.141,2.141H7.331c-1.181,0-2.141-0.96-2.141-2.141V2.429H1.92C0.861,2.429,0,3.291,0,4.349
			v23.2c0,1.059,0.861,1.92,1.92,1.92h26.16c1.059,0,1.92-0.861,1.92-1.92v-23.2C30,3.291,29.139,2.429,28.08,2.429L28.08,2.429z
			 M28.08,27.549H1.92v-17.52h26.16V27.549C28.081,27.549,28.081,27.549,28.08,27.549L28.08,27.549z M28.08,27.549"/>
	</g>
	<path fill="#666666" d="M15.991,15.905h3.447c0.137,0,0.247-0.11,0.247-0.247v-2.985c0-0.137-0.11-0.248-0.247-0.248h-3.447
		c-0.137,0-0.247,0.111-0.247,0.248v2.985C15.744,15.795,15.854,15.905,15.991,15.905L15.991,15.905z M15.991,15.905"/>
	<path fill="#666666" d="M21.617,15.905h3.447c0.137,0,0.248-0.11,0.248-0.247v-2.985c0-0.137-0.111-0.248-0.248-0.248h-3.447
		c-0.137,0-0.247,0.111-0.247,0.248v2.985C21.37,15.795,21.48,15.905,21.617,15.905L21.617,15.905z M21.617,15.905"/>
	<path fill="#666666" d="M4.739,20.793h3.447c0.137,0,0.248-0.111,0.248-0.248v-2.984c0-0.137-0.111-0.248-0.248-0.248H4.739
		c-0.137,0-0.248,0.111-0.248,0.248v2.984C4.492,20.682,4.603,20.793,4.739,20.793L4.739,20.793z M4.739,20.793"/>
	<path fill="#666666" d="M10.365,20.793h3.447c0.137,0,0.248-0.111,0.248-0.248v-2.984c0-0.137-0.111-0.248-0.248-0.248h-3.447
		c-0.137,0-0.248,0.111-0.248,0.248v2.984C10.118,20.682,10.229,20.793,10.365,20.793L10.365,20.793z M10.365,20.793"/>
	<path fill="#666666" d="M15.991,20.793h3.447c0.137,0,0.247-0.111,0.247-0.248v-2.984c0-0.137-0.11-0.248-0.247-0.248h-3.447
		c-0.137,0-0.247,0.111-0.247,0.248v2.984C15.744,20.682,15.854,20.793,15.991,20.793L15.991,20.793z M15.991,20.793"/>
	<path fill="#666666" d="M21.617,20.793h3.447c0.137,0,0.248-0.111,0.248-0.248v-2.984c0-0.137-0.111-0.248-0.248-0.248h-3.447
		c-0.137,0-0.247,0.111-0.247,0.248v2.984C21.37,20.682,21.48,20.793,21.617,20.793L21.617,20.793z M21.617,20.793"/>
	<path fill="#666666" d="M8.187,22.2H4.739c-0.137,0-0.248,0.11-0.248,0.247v2.985c0,0.137,0.111,0.247,0.248,0.247h3.447
		c0.137,0,0.248-0.11,0.248-0.247v-2.985C8.434,22.311,8.323,22.2,8.187,22.2L8.187,22.2z M8.187,22.2"/>
	<path fill="#666666" d="M13.813,22.2h-3.447c-0.137,0-0.248,0.11-0.248,0.247v2.985c0,0.137,0.111,0.247,0.248,0.247h3.447
		c0.137,0,0.248-0.11,0.248-0.247v-2.985C14.06,22.311,13.949,22.2,13.813,22.2L13.813,22.2z M13.813,22.2"/>
	<path fill="#666666" d="M19.438,22.2h-3.447c-0.137,0-0.247,0.11-0.247,0.247v2.985c0,0.137,0.11,0.247,0.247,0.247h3.447
		c0.137,0,0.248-0.11,0.248-0.247v-2.985C19.687,22.311,19.575,22.2,19.438,22.2L19.438,22.2z M19.438,22.2"/>
	<path fill="#666666" d="M25.064,22.2h-3.447c-0.137,0-0.247,0.11-0.247,0.247v2.985c0,0.137,0.11,0.247,0.247,0.247h3.447
		c0.137,0,0.248-0.11,0.248-0.247v-2.985C25.313,22.311,25.201,22.2,25.064,22.2L25.064,22.2z M25.064,22.2"/>
</g>
</svg>
