<?xml version="1.0" encoding="utf-8"?>
<!-- Generator: Adobe Illustrator 15.0.2, SVG Export Plug-In . SVG Version: 6.00 Build 0)  -->
<!DOCTYPE svg PUBLIC "-//W3C//DTD SVG 1.1//EN" "http://www.w3.org/Graphics/SVG/1.1/DTD/svg11.dtd">
<svg version="1.1" id="Layer_1" xmlns="http://www.w3.org/2000/svg" xmlns:xlink="http://www.w3.org/1999/xlink" x="0px" y="0px"
	 width="25.146px" height="30px" viewBox="0 0 25.146 30" enable-background="new 0 0 25.146 30" xml:space="preserve">
<g>
	<g>
		<path fill="#DADADA" d="M24.094,4.562C23.899,3.743,23.567,3.119,23.1,2.69c-0.468-0.429-1.15-0.818-2.047-1.169
			c-0.896-0.39-2.183-0.741-3.86-1.053C15.517,0.156,13.986,0,12.603,0c-1.384,0-2.914,0.156-4.591,0.468
			C6.335,0.78,5.049,1.13,4.152,1.521C3.255,1.872,2.573,2.261,2.105,2.69C1.637,3.119,1.326,3.743,1.17,4.562L0,13.918v13.041
			h1.813v1.17c0,0.779,0.244,1.325,0.731,1.638c0.487,0.312,1.496,0.312,2.003,0c0.507-0.313,0.76-0.858,0.76-1.638v-1.17h14.459
			v1.17c0,0.779,0.302,1.325,0.907,1.638c0.604,0.312,1.199,0.312,1.783,0c0.585-0.313,0.877-0.858,0.877-1.638v-1.17h1.813V13.918
			L24.094,4.562z M6.375,2.251C6.53,1.959,6.803,1.813,7.193,1.813h11.988v1.754H7.193c-0.39,0-0.663-0.146-0.818-0.438
			C6.218,2.836,6.218,2.544,6.375,2.251L6.375,2.251z M2.105,13.685L3.1,6.55c0.078-0.39,0.409-0.585,0.994-0.585h17.134
			c0.585,0,0.917,0.195,0.995,0.585l0.994,7.251c0.039,0.117,0.058,0.195,0.058,0.234c0,0.273-0.097,0.497-0.292,0.672
			c-0.195,0.176-0.448,0.264-0.76,0.264H3.1c-0.312,0-0.565-0.098-0.76-0.292c-0.195-0.195-0.292-0.448-0.292-0.761
			C2.047,13.84,2.066,13.763,2.105,13.685L2.105,13.685z M5.205,22.427c-0.39,0.371-0.848,0.556-1.374,0.556
			s-0.984-0.185-1.374-0.556c-0.39-0.37-0.585-0.818-0.585-1.345s0.195-0.975,0.585-1.345c0.39-0.371,0.848-0.556,1.374-0.556
			s0.984,0.185,1.374,0.556c0.39,0.37,0.585,0.818,0.585,1.345S5.595,22.057,5.205,22.427L5.205,22.427z M22.866,22.427
			c-0.39,0.371-0.848,0.556-1.375,0.556c-0.526,0-0.984-0.185-1.374-0.556c-0.39-0.37-0.585-0.818-0.585-1.345
			s0.195-0.975,0.585-1.345c0.39-0.371,0.848-0.556,1.374-0.556c0.526,0,0.984,0.185,1.375,0.556c0.39,0.37,0.585,0.818,0.585,1.345
			S23.255,22.057,22.866,22.427L22.866,22.427z M22.866,22.427"/>
	</g>
</g>
</svg>
