<?xml version="1.0" encoding="utf-8"?>
<!-- Generator: Adobe Illustrator 15.0.2, SVG Export Plug-In . SVG Version: 6.00 Build 0)  -->
<!DOCTYPE svg PUBLIC "-//W3C//DTD SVG 1.1//EN" "http://www.w3.org/Graphics/SVG/1.1/DTD/svg11.dtd">
<svg version="1.1" id="Layer_1" xmlns="http://www.w3.org/2000/svg" xmlns:xlink="http://www.w3.org/1999/xlink" x="0px" y="0px"
	 width="30px" height="30px" viewBox="0 0 30 30" enable-background="new 0 0 30 30" xml:space="preserve">
<g>
	<path fill="#DADADA" d="M15,30c8.272,0,15-6.729,15-15.001c0-6.272-3.873-11.656-9.352-13.892c-0.443-0.18-0.897-0.34-1.36-0.479
		C17.929,0.222,16.49,0,15,0C6.729,0,0,6.729,0,14.999C0,23.271,6.729,30,15,30L15,30z M21.814,3.256
		c0.04-0.007,0.079-0.018,0.12-0.022c0.012-0.001,0.025-0.001,0.038-0.002C24.497,4.733,26.5,7.022,27.64,9.76
		c-0.122-0.1-0.269-0.158-0.437-0.169c-0.063-0.004-0.125-0.013-0.186-0.023C26.84,9.535,26.71,9.44,26.646,9.27
		c-0.029-0.078-0.042-0.161-0.065-0.24c-0.007-0.027-0.022-0.053-0.036-0.083c-0.021,0.013-0.036,0.018-0.047,0.029
		c-0.027,0.031-0.054,0.063-0.078,0.096c-0.032,0.042-0.06,0.086-0.094,0.125c-0.109,0.128-0.196,0.12-0.276-0.025
		c-0.018-0.032-0.032-0.065-0.044-0.1c-0.02-0.048-0.033-0.098-0.052-0.147c-0.025-0.068-0.048-0.138-0.079-0.203
		c-0.06-0.127-0.116-0.133-0.201-0.027c-0.017,0.02-0.03,0.042-0.048,0.061c-0.027,0.031-0.056,0.063-0.089,0.088
		c-0.111,0.088-0.228,0.088-0.343,0.002c-0.021-0.016-0.039-0.034-0.059-0.052c-0.053-0.048-0.079-0.104-0.076-0.179
		c0.003-0.093,0.001-0.188-0.008-0.281c-0.007-0.055-0.026-0.111-0.047-0.163c-0.018-0.042-0.068-0.054-0.105-0.027
		c-0.038,0.027-0.072,0.058-0.115,0.092c-0.047-0.02-0.094-0.039-0.141-0.059c-0.203-0.092-0.406-0.188-0.61-0.277
		c-0.07-0.031-0.135-0.066-0.194-0.145c-0.108,0.365-0.119,0.726-0.171,1.086c-0.038,0.013-0.078,0.027-0.117,0.037
		c-0.171,0.043-0.344,0.081-0.513,0.129c-0.277,0.081-0.522,0.025-0.746-0.151c-0.163-0.127-0.288-0.285-0.39-0.463
		c-0.129-0.226-0.253-0.454-0.379-0.681c-0.015-0.026-0.026-0.055-0.04-0.085c0.059-0.063,0.134-0.089,0.2-0.126
		c0.304-0.175,0.626-0.279,0.981-0.244c0.044,0.004,0.082-0.003,0.117-0.03c0.025-0.019,0.053-0.033,0.08-0.05
		c0.132-0.083,0.277-0.151,0.391-0.255c0.117-0.107,0.205-0.249,0.302-0.377c0.04-0.053,0.09-0.101,0.114-0.167
		c-0.046-0.107-0.086-0.214-0.137-0.317c-0.04-0.083-0.049-0.167-0.034-0.257c0.018-0.107,0.034-0.215,0.048-0.324
		c0.005-0.04,0.022-0.082-0.017-0.124c-0.17-0.022-0.344-0.054-0.519-0.068c-0.084-0.007-0.133-0.042-0.171-0.111
		c-0.054-0.096-0.115-0.186-0.166-0.283c-0.036-0.068-0.089-0.097-0.162-0.104c-0.098-0.009-0.195-0.029-0.294-0.034
		c-0.079-0.004-0.138-0.039-0.188-0.096c-0.077-0.087-0.126-0.191-0.161-0.299c-0.051-0.155-0.067-0.315-0.08-0.477
		C21.772,3.679,21.781,3.472,21.814,3.256L21.814,3.256z M21.158,4.789c-0.031-0.103-0.025-0.143,0.04-0.192
		c0.081-0.062,0.189-0.077,0.261-0.026c0.041,0.03,0.08,0.067,0.11,0.108c0.083,0.108,0.176,0.2,0.305,0.256
		c0.146,0.064,0.255,0.18,0.354,0.301c0.187,0.229,0.31,0.49,0.384,0.775c0.006,0.02,0.005,0.041,0.008,0.073
		c-0.111,0.108-0.229,0.193-0.358,0.26c-0.046,0.024-0.095,0.045-0.145,0.057c-0.298,0.077-0.476-0.088-0.529-0.318
		c-0.042-0.181-0.07-0.366-0.106-0.561c-0.032,0.008-0.061,0.011-0.087,0.023c-0.107,0.05-0.214,0.102-0.327,0.155
		c-0.089-0.117-0.149-0.24-0.212-0.372c0.114-0.104,0.242-0.185,0.354-0.281C21.227,4.953,21.184,4.872,21.158,4.789L21.158,4.789z
		 M21.043,10.475c0.09-0.025,0.158-0.065,0.217-0.138c0.15-0.186,0.31-0.365,0.46-0.551c0.052-0.065,0.111-0.103,0.188-0.125
		c0.235-0.067,0.467-0.141,0.7-0.213c0.205-0.063,0.414-0.096,0.629-0.104c0.389-0.016,0.768,0.029,1.132,0.171
		c0.062,0.024,0.121,0.026,0.184,0.025c0.218-0.003,0.437-0.005,0.653,0.03c0.208,0.033,0.399,0.089,0.569,0.229
		c0.298,0.243,0.608,0.471,0.914,0.706c0.167,0.129,0.167,0.129,0.38,0.125c0.307-0.007,0.61-0.006,0.913,0.053
		c0.453,1.359,0.702,2.81,0.702,4.319c0,4.632-2.316,8.732-5.851,11.21c0.007-0.041,0.016-0.081,0.029-0.121
		c0.028-0.084,0.054-0.169,0.089-0.25c0.107-0.242,0.22-0.482,0.329-0.724c0.121-0.265,0.244-0.529,0.365-0.794
		c0.075-0.161,0.085-0.328,0.047-0.502c-0.044-0.203-0.082-0.407-0.124-0.611c-0.04-0.203-0.043-0.403,0.027-0.601
		c0.132-0.371,0.31-0.715,0.597-0.993c0.09-0.087,0.173-0.182,0.254-0.276c0.104-0.123,0.184-0.263,0.242-0.415
		c0.072-0.194,0.098-0.391,0.058-0.597c-0.031-0.16-0.089-0.31-0.141-0.462c-0.045-0.128-0.091-0.255-0.129-0.385
		c-0.061-0.208-0.069-0.421-0.012-0.632c0.036-0.136,0.085-0.267,0.131-0.399c0.049-0.137,0.104-0.271,0.153-0.408
		c0.063-0.178,0.1-0.362,0.082-0.552c-0.013-0.129-0.035-0.257-0.066-0.383c-0.032-0.135-0.09-0.159-0.217-0.109
		c-0.047,0.019-0.094,0.042-0.142,0.063c-0.147,0.064-0.242,0.036-0.315-0.071c-0.055-0.08-0.137-0.128-0.23-0.152
		c-0.079-0.021-0.16-0.047-0.242-0.053c-0.275-0.02-0.551-0.01-0.826,0.007c-0.202,0.013-0.405,0.019-0.608,0.021
		c-0.061,0.001-0.123-0.012-0.184-0.023c-0.165-0.03-0.319-0.09-0.471-0.161c-0.273-0.131-0.521-0.302-0.759-0.489
		c-0.385-0.304-0.729-0.651-1.081-0.99c-0.048-0.046-0.077-0.1-0.093-0.159c-0.02-0.076-0.036-0.152-0.042-0.23
		c-0.031-0.355,0.013-0.706,0.078-1.054c0.069-0.374,0.166-0.74,0.272-1.104c0.061-0.206,0.094-0.416,0.092-0.631
		c0-0.089-0.008-0.177-0.056-0.256c-0.041-0.068-0.039-0.14-0.008-0.209c0.051-0.113,0.101-0.229,0.164-0.334
		C20.319,10.811,20.64,10.583,21.043,10.475L21.043,10.475z M18.292,3.272c-0.104,0.088-0.144,0.198-0.174,0.318
		c-0.01,0.04-0.026,0.079-0.045,0.133c-0.212-0.022-0.409-0.06-0.604-0.113c-0.093-0.025-0.173-0.069-0.249-0.125
		c-0.033-0.024-0.065-0.051-0.091-0.083c-0.089-0.109-0.063-0.244,0.066-0.294c0.256-0.101,0.514-0.193,0.771-0.289
		c0.036-0.014,0.069-0.014,0.104,0.003c0.085,0.041,0.165,0.089,0.227,0.162C18.383,3.084,18.393,3.188,18.292,3.272L18.292,3.272z
		 M15.109,2.02c0.092-0.231,0.179-0.464,0.271-0.695c0.962,0.027,1.9,0.152,2.804,0.369c-0.125,0.198-0.247,0.396-0.374,0.586
		c-0.188,0.035-0.36,0.068-0.535,0.096c-0.071,0.01-0.124,0.038-0.169,0.093c-0.192,0.227-0.388,0.449-0.578,0.677
		c-0.168,0.199-0.329,0.402-0.495,0.603c-0.022,0.027-0.049,0.051-0.073,0.076c-0.127-0.047-0.228-0.119-0.319-0.205
		c-0.158-0.148-0.27-0.33-0.353-0.527c-0.112-0.265-0.175-0.542-0.208-0.83C15.07,2.176,15.077,2.099,15.109,2.02L15.109,2.02z
		 M4.283,10.475c0.008-0.198,0.062-0.385,0.064-0.581c-0.053-0.022-0.1-0.042-0.147-0.061C3.965,9.731,3.743,9.61,3.543,9.448
		C3.421,9.35,3.311,9.239,3.227,9.105C3.12,8.933,3.065,8.747,3.097,8.541C3.115,8.42,3.13,8.299,3.145,8.177
		C5.5,4.102,9.89,1.348,14.918,1.317C14.959,1.406,15,1.495,15.04,1.583c0.012,0.027,0.017,0.057,0.024,0.088
		c-0.162,0.125-0.322,0.24-0.474,0.367c-0.151,0.125-0.286,0.271-0.445,0.395c-0.076-0.144-0.192-0.238-0.314-0.327
		c-0.203-0.149-0.132-0.123-0.385-0.115c-0.171,0.006-0.34,0.016-0.502,0.088c-0.087,0.039-0.182,0.037-0.276,0.032
		c-0.071-0.004-0.13-0.031-0.174-0.089c-0.012-0.017-0.023-0.034-0.035-0.05c-0.041-0.052-0.094-0.066-0.153-0.046
		c-0.048,0.017-0.099,0.037-0.141,0.066c-0.073,0.049-0.144,0.102-0.208,0.163c-0.081,0.074-0.167,0.14-0.26,0.198
		c-0.141,0.09-0.279,0.182-0.419,0.27c-0.053,0.033-0.085,0.073-0.093,0.135c-0.014,0.098-0.041,0.194-0.051,0.292
		c-0.013,0.129-0.017,0.26,0.026,0.387c0.057,0.169,0.202,0.243,0.37,0.181c0.201-0.074,0.39-0.173,0.558-0.308
		c0.111-0.088,0.204-0.192,0.255-0.328c0.009-0.025,0.02-0.048,0.033-0.07c0.031-0.046,0.069-0.058,0.12-0.036
		c0.042,0.019,0.084,0.041,0.125,0.062c0.106,0.051,0.212,0.049,0.313-0.01c0.054-0.03,0.106-0.066,0.153-0.105
		c0.044-0.035,0.084-0.079,0.124-0.12c0.066-0.068,0.144-0.12,0.23-0.156c0.166-0.066,0.284-0.035,0.378,0.113
		c0.073,0.112,0.165,0.199,0.274,0.272c0.046,0.032,0.093,0.066,0.134,0.105c0.065,0.063,0.085,0.139,0.064,0.229
		c-0.023,0.098-0.071,0.183-0.124,0.267c-0.043,0.072-0.089,0.141-0.128,0.213c-0.02,0.037-0.031,0.078-0.04,0.118
		c-0.008,0.043,0.031,0.086,0.075,0.079c0.056-0.009,0.11-0.029,0.165-0.043c0.032-0.009,0.065-0.019,0.114-0.032
		c-0.019,0.325-0.067,0.624-0.223,0.897c-0.028,0.049-0.063,0.096-0.104,0.135c-0.116,0.113-0.252,0.16-0.414,0.12
		c-0.113-0.028-0.216-0.068-0.304-0.149c-0.173-0.157-0.333-0.14-0.489,0.03c-0.049,0.053-0.091,0.114-0.124,0.178
		c-0.034,0.067-0.084,0.1-0.153,0.118c-0.304,0.083-0.612,0.117-0.926,0.076c-0.053-0.006-0.101-0.004-0.153,0.011
		c-0.198,0.06-0.398,0.115-0.598,0.172c-0.08,0.023-0.155,0.055-0.227,0.099c-0.133,0.082-0.274,0.15-0.424,0.197
		c-0.151,0.047-0.304,0.073-0.45-0.032C9.288,6.114,8.757,6.405,8.168,6.593c-0.036,0.222-0.07,0.437-0.103,0.651
		C8.024,7.506,7.983,7.769,7.941,8.03C7.93,8.096,7.903,8.122,7.843,8.132C7.771,8.144,7.705,8.131,7.658,8.075
		C7.611,8.02,7.567,7.96,7.534,7.897C7.451,7.733,7.401,7.556,7.381,7.376C7.354,7.122,7.221,6.951,7.002,6.842
		C6.715,6.699,6.408,6.65,6.093,6.706c-0.518,0.09-0.961,0.333-1.317,0.719C4.474,7.752,4.478,7.752,4.393,8.203
		C4.363,8.362,4.36,8.525,4.41,8.683c0.052,0.163,0.159,0.263,0.328,0.299C4.825,9.001,4.912,9.009,5,8.99
		C5.097,8.97,5.193,8.948,5.289,8.93c0.029-0.005,0.064-0.011,0.089,0c0.074,0.029,0.138,0.073,0.187,0.137
		C5.625,9.147,5.642,9.234,5.6,9.33C5.568,9.403,5.521,9.466,5.462,9.517C5.386,9.581,5.307,9.639,5.228,9.698
		c-0.033,0.025-0.07,0.046-0.101,0.074c-0.128,0.119-0.126,0.262,0.005,0.376c0.031,0.027,0.066,0.049,0.102,0.071
		c0.03,0.019,0.061,0.035,0.096,0.056c-0.009,0.094-0.015,0.182-0.025,0.27c-0.028,0.228-0.029,0.458-0.017,0.685
		c0.011,0.219,0.106,0.403,0.285,0.532c0.117,0.086,0.243,0.161,0.37,0.23c0.072,0.04,0.153,0.064,0.234,0.085
		c0.235,0.061,0.445,0.008,0.615-0.165c0.073-0.074,0.13-0.162,0.185-0.25c0.102-0.162,0.251-0.23,0.438-0.193
		c0.101,0.02,0.187,0.069,0.257,0.139c0.087,0.087,0.191,0.142,0.299,0.193c0.145,0.07,0.289,0.143,0.435,0.211
		c0.051,0.023,0.105,0.042,0.161,0.056c0.41,0.103,0.763,0.301,1.022,0.642c0.054,0.071,0.116,0.11,0.197,0.139
		c0.386,0.134,0.74,0.329,1.057,0.588c0.399,0.327,0.699,0.726,0.854,1.223c0.036,0.116,0.088,0.215,0.176,0.303
		c0.084,0.084,0.153,0.185,0.216,0.285c0.084,0.137,0.157,0.28,0.235,0.423c0.02,0.035,0.041,0.07,0.057,0.101
		c0.076,0.016,0.142,0.026,0.207,0.041c0.44,0.099,0.855,0.258,1.231,0.511c0.195,0.132,0.37,0.286,0.521,0.467
		c0.042,0.051,0.065,0.102,0.066,0.169c0.009,0.593-0.207,1.074-0.701,1.417c-0.063,0.043-0.102,0.098-0.127,0.169
		c-0.127,0.346-0.258,0.69-0.391,1.035c-0.024,0.063-0.055,0.123-0.093,0.179c-0.174,0.246-0.354,0.488-0.528,0.735
		c-0.056,0.078-0.123,0.14-0.207,0.184c-0.064,0.033-0.128,0.068-0.195,0.1c-0.241,0.114-0.492,0.195-0.752,0.249
		c-0.069,0.013-0.123,0.04-0.168,0.1c-0.173,0.229-0.35,0.452-0.526,0.678c-0.019,0.025-0.04,0.05-0.054,0.077
		c-0.167,0.312-0.374,0.6-0.567,0.896c-0.044,0.066-0.098,0.119-0.165,0.162c-0.282,0.188-0.563,0.375-0.842,0.566
		c-0.081,0.055-0.159,0.117-0.23,0.185c-0.141,0.132-0.278,0.268-0.412,0.404c-0.037,0.036-0.07,0.079-0.091,0.124
		c-0.132,0.283-0.257,0.568-0.389,0.852c-0.028,0.06-0.033,0.117-0.021,0.182c0.089,0.469,0.177,0.938,0.264,1.409
		c0.01,0.055,0.022,0.109,0.021,0.166c-0.052,0.002-0.08,0.003-0.106-0.001c-0.24-0.141-0.477-0.285-0.708-0.439
		c-0.341-0.316-0.606-0.692-0.839-1.092c-0.023-0.038-0.034-0.087-0.042-0.133c-0.054-0.369-0.106-0.74-0.157-1.111
		c-0.007-0.048-0.023-0.089-0.05-0.128c-0.061-0.094-0.089-0.198-0.11-0.307c-0.047-0.255-0.02-0.508,0.018-0.76
		c0.044-0.299,0.09-0.597,0.135-0.895c0.007-0.042,0.004-0.08-0.024-0.118c-0.073-0.1-0.095-0.216-0.102-0.338
		c-0.013-0.231,0.027-0.455,0.086-0.678c0.021-0.08,0.039-0.161,0.051-0.243c0.04-0.268,0.077-0.534,0.113-0.803
		c0.015-0.113,0.027-0.226,0.039-0.332c-0.024-0.023-0.038-0.038-0.055-0.05c-0.149-0.127-0.237-0.287-0.273-0.478
		c-0.026-0.135-0.026-0.27-0.001-0.403c0.019-0.102,0.042-0.201,0.064-0.303c-0.053-0.036-0.099-0.068-0.146-0.1
		c-0.227-0.161-0.437-0.338-0.613-0.554c-0.181-0.221-0.36-0.443-0.535-0.67c-0.069-0.09-0.131-0.188-0.184-0.289
		c-0.084-0.165-0.124-0.342-0.083-0.529c0.01-0.042,0.002-0.08-0.013-0.121c-0.107-0.299-0.12-0.609-0.096-0.924
		c0.018-0.215,0.075-0.419,0.197-0.601c0.077-0.112,0.148-0.227,0.226-0.337c0.137-0.196,0.276-0.391,0.418-0.583
		c0.138-0.189,0.216-0.4,0.256-0.629c0.019-0.104,0.029-0.206,0.02-0.31c-0.016-0.162-0.072-0.302-0.21-0.401
		c-0.153-0.109-0.299-0.225-0.454-0.331c-0.08-0.054-0.117-0.124-0.139-0.214c-0.05-0.212-0.109-0.423-0.157-0.636
		c-0.017-0.076-0.048-0.134-0.107-0.182C4.561,10.73,4.473,10.65,4.384,10.57C4.35,10.538,4.316,10.506,4.283,10.475L4.283,10.475z
		 M8.265,10.025c0.026-0.016,0.054-0.031,0.082-0.044C8.45,9.933,8.555,9.885,8.658,9.837C8.738,9.8,8.817,9.764,8.897,9.727
		c0.023-0.01,0.047-0.019,0.079-0.03c0.081,0.051,0.167,0.098,0.245,0.156c0,0,0.001,0,0.001,0.001
		c0.082,0.059,0.18,0.075,0.286,0.12c-0.026,0.126-0.036,0.245-0.115,0.345c-0.043-0.017-0.079-0.026-0.111-0.042
		c-0.176-0.086-0.363-0.118-0.559-0.116c-0.067,0.001-0.134,0.005-0.202,0.005c-0.079,0-0.156-0.001-0.234-0.005
		c-0.04-0.002-0.092,0.005-0.101-0.049C8.181,10.063,8.229,10.046,8.265,10.025L8.265,10.025z M7.902,9.303
		C7.595,9.261,7.287,9.209,6.98,9.156C6.889,9.141,6.795,9.125,6.727,9.054C6.795,8.83,6.941,8.713,7.161,8.69
		c0.154-0.015,0.291,0.016,0.405,0.12c0.178,0.164,0.386,0.23,0.626,0.233C8.314,9.044,8.438,9.075,8.56,9.099
		c0.042,0.009,0.085,0.039,0.118,0.068c0.025,0.023,0.03,0.056,0.021,0.085C8.69,9.277,8.673,9.299,8.645,9.307
		c-0.081,0.02-0.164,0.038-0.245,0.035C8.351,9.34,8.302,9.337,8.253,9.334C8.136,9.329,8.018,9.32,7.902,9.303L7.902,9.303z
		 M7.902,9.303"/>
</g>
</svg>
