<?xml version="1.0" encoding="utf-8"?>
<!-- Generator: Adobe Illustrator 15.0.2, SVG Export Plug-In . SVG Version: 6.00 Build 0)  -->
<!DOCTYPE svg PUBLIC "-//W3C//DTD SVG 1.1//EN" "http://www.w3.org/Graphics/SVG/1.1/DTD/svg11.dtd">
<svg version="1.1" id="Layer_1" xmlns="http://www.w3.org/2000/svg" xmlns:xlink="http://www.w3.org/1999/xlink" x="0px" y="0px"
	 width="24.222px" height="30px" viewBox="0 0 24.222 30" enable-background="new 0 0 24.222 30" xml:space="preserve">
<g>
	<path fill="#FEDA00" d="M10.85,5.913c1.631,0,2.957-1.323,2.957-2.956C13.807,1.323,12.481,0,10.85,0
		C9.217,0,7.893,1.323,7.893,2.957C7.893,4.589,9.217,5.913,10.85,5.913L10.85,5.913z M10.85,5.913"/>
	<g>
		<path fill="#FEDA00" d="M15.419,22.665c-0.786,2.728-3.301,4.731-6.278,4.731c-3.605,0-6.538-2.933-6.538-6.537
			c0-2.668,1.609-4.964,3.907-5.979v-2.771C2.749,13.242,0,16.734,0,20.859C0,25.899,4.101,30,9.141,30
			c3.673,0,6.839-2.183,8.292-5.315L16.4,22.657C16.11,22.659,15.774,22.662,15.419,22.665L15.419,22.665z M15.419,22.665"/>
		<path fill="#FEDA00" d="M24.032,26.175l-3.961-7.785c-0.295-0.583-0.893-0.949-1.546-0.949h-5.072v-1.157h4.365
			c0.436,0,0.802-0.228,1.039-0.556c0.153-0.214,0.263-0.462,0.263-0.746c0-0.719-0.582-1.302-1.302-1.302h-4.365V9.757
			c0-1.079-0.8-2.604-2.603-2.604c-1.438,0-2.604,1.166-2.604,2.604v8.498c0,1.468,1.189,2.657,2.656,2.657h6.559l3.478,6.836
			c0.306,0.603,0.915,0.95,1.548,0.95c0.266,0,0.534-0.061,0.785-0.189C24.128,28.075,24.468,27.029,24.032,26.175L24.032,26.175z
			 M24.032,26.175"/>
	</g>
</g>
</svg>
