<?xml version="1.0" encoding="utf-8"?>
<!-- Generator: Adobe Illustrator 15.0.2, SVG Export Plug-In . SVG Version: 6.00 Build 0)  -->
<!DOCTYPE svg PUBLIC "-//W3C//DTD SVG 1.1//EN" "http://www.w3.org/Graphics/SVG/1.1/DTD/svg11.dtd">
<svg version="1.1" id="Layer_1" xmlns="http://www.w3.org/2000/svg" xmlns:xlink="http://www.w3.org/1999/xlink" x="0px" y="0px"
	 width="24.091px" height="30px" viewBox="0 0 24.091 30" enable-background="new 0 0 24.091 30" xml:space="preserve">
<g>
	<g>
		<path fill="#DADADA" d="M20.298,17.369c-3.457-1.129-4.895-2.534-4.895-2.534l-0.115,0.111c-1.027,0.966-2.162,1.534-3.197,1.534
			h-0.098c-1.035,0-2.169-0.568-3.197-1.534l-0.116-0.111c0,0-1.437,1.405-4.895,2.534c-5.103,1.906-3.571,9.665-3.572,9.726
			c0.161,0.863,0.254,1.161,0.336,1.194c5.125,2.281,17.86,2.281,22.984,0c0.082-0.033,0.176-0.331,0.337-1.194
			C23.87,27.034,25.422,19.307,20.298,17.369L20.298,17.369z M20.298,17.369"/>
		<path fill="#DADADA" d="M17.403,7.471L17.36,7.424c-0.287-0.263-0.265-0.248-0.265-0.248s0.501-2.527,0.1-3.722
			c-0.631-1.909-4.397-3.188-5.152-3.337c0-0.001-0.46-0.093-0.489-0.093c0,0-0.594-0.12-1.283,0.18
			C9.822,0.377,7.477,1.44,6.812,3.454c-0.401,1.195,0.1,3.722,0.1,3.722s0.022-0.015-0.265,0.248L6.604,7.471
			C6.409,7.691,6.457,8.382,6.669,9.1c0.193,0.72,0.443,0.913,0.503,1.082c0.609,2.86,2.728,5.302,4.886,5.302
			c2.158,0,4.165-2.442,4.774-5.302c0.06-0.169,0.311-0.362,0.503-1.082C17.549,8.382,17.602,7.644,17.403,7.471L17.403,7.471z
			 M17.403,7.471"/>
	</g>
</g>
</svg>
