<?xml version="1.0" encoding="utf-8"?>
<!-- Generator: Adobe Illustrator 15.0.2, SVG Export Plug-In . SVG Version: 6.00 Build 0)  -->
<!DOCTYPE svg PUBLIC "-//W3C//DTD SVG 1.1//EN" "http://www.w3.org/Graphics/SVG/1.1/DTD/svg11.dtd">
<svg version="1.1" id="Layer_1" xmlns="http://www.w3.org/2000/svg" xmlns:xlink="http://www.w3.org/1999/xlink" x="0px" y="0px"
	 width="23.33px" height="30px" viewBox="0 0 23.33 30" enable-background="new 0 0 23.33 30" xml:space="preserve">
<g>
	<g>
		<path fill="#DADADA" d="M17.144,23.328c-3.461,1.629-7.498,1.629-10.959,0C4.259,24.911,3.031,27.313,3.031,30h17.267
			C20.298,27.313,19.07,24.911,17.144,23.328L17.144,23.328z M17.144,23.328"/>
		<path fill="#DADADA" d="M11.665,23.329c6.442,0,11.665-5.223,11.665-11.665C23.33,5.222,18.107,0,11.665,0S0,5.222,0,11.665
			C0,18.106,5.222,23.329,11.665,23.329L11.665,23.329z M1.24,11.096c5.256,1.02,10.499-0.633,14.191-4.086
			c1.222,2.879,3.54,5.237,6.514,6.481c-0.863,4.895-5.138,8.613-10.28,8.613c-5.766,0-10.44-4.674-10.44-10.44
			C1.225,11.474,1.23,11.284,1.24,11.096L1.24,11.096z M1.24,11.096"/>
	</g>
	<path fill="#DADADA" d="M8.174,13.071c0,0.681-0.552,1.233-1.232,1.233c-0.681,0-1.233-0.552-1.233-1.233s0.552-1.233,1.233-1.233
		C7.623,11.838,8.174,12.39,8.174,13.071L8.174,13.071z M8.174,13.071"/>
	<path fill="#DADADA" d="M17.62,13.071c0,0.681-0.552,1.233-1.232,1.233s-1.232-0.552-1.232-1.233s0.552-1.233,1.232-1.233
		S17.62,12.39,17.62,13.071L17.62,13.071z M17.62,13.071"/>
	<path fill="#DADADA" d="M11.665,20.05c1.104,0,2.097-0.465,2.53-1.184c0.175-0.29,0.082-0.666-0.208-0.841
		c-0.289-0.175-0.665-0.081-0.841,0.208c-0.171,0.285-0.708,0.592-1.481,0.592c-0.773,0-1.31-0.307-1.482-0.592
		c-0.174-0.289-0.55-0.383-0.84-0.208c-0.29,0.175-0.382,0.551-0.208,0.841C9.568,19.585,10.561,20.05,11.665,20.05L11.665,20.05z
		 M11.665,20.05"/>
</g>
</svg>
