<?xml version="1.0" encoding="utf-8"?>
<!-- Generator: Adobe Illustrator 15.0.2, SVG Export Plug-In . SVG Version: 6.00 Build 0)  -->
<!DOCTYPE svg PUBLIC "-//W3C//DTD SVG 1.1//EN" "http://www.w3.org/Graphics/SVG/1.1/DTD/svg11.dtd">
<svg version="1.1" id="Layer_1" xmlns="http://www.w3.org/2000/svg" xmlns:xlink="http://www.w3.org/1999/xlink" x="0px" y="0px"
	 width="30px" height="27.039px" viewBox="0 0 30 27.039" enable-background="new 0 0 30 27.039" xml:space="preserve">
<g>
	<g>
		<path fill="#DADADA" d="M17.325,14.645v2.212c5.525,0.547,8.814,2.465,8.814,3.905c0,1.696-4.552,4.063-11.964,4.063
			c-7.412,0-11.962-2.366-11.962-4.063c0-1.451,3.333-3.386,8.93-3.918v-2.211C5.316,15.179,0,17.286,0,20.762
			c0,4.076,7.304,6.276,14.176,6.276s14.177-2.2,14.177-6.276C28.353,17.308,23.107,15.208,17.325,14.645L17.325,14.645z
			 M17.325,14.645"/>
		<path fill="#DADADA" d="M29.513,0.965c-0.169-0.106-0.361-0.159-0.555-0.159c-0.154,0-0.309,0.034-0.453,0.103L26.67,1.8
			c-0.854,0.415-1.778,0.621-2.703,0.621c-0.978,0-1.952-0.231-2.844-0.69c-0.89-0.459-1.861-0.687-2.83-0.687
			c-1.015,0-2.027,0.248-2.945,0.742V1.113c0-0.615-0.5-1.113-1.114-1.113c-0.615,0-1.113,0.498-1.113,1.113v19.939
			c0,0.614,0.498,1.113,1.113,1.113c0.614,0,1.114-0.499,1.114-1.113V10.876c0.918-0.495,1.932-0.744,2.945-0.744
			c0.97,0,1.94,0.228,2.83,0.687c0.892,0.459,1.866,0.69,2.843,0.69c0.925,0,1.85-0.207,2.704-0.621l2.743-1.331
			C29.772,9.384,30,9.021,30,8.622V1.847C30,1.488,29.814,1.155,29.513,0.965L29.513,0.965z M29.513,0.965"/>
	</g>
</g>
</svg>
