<?xml version="1.0" encoding="utf-8"?>
<!-- Generator: Adobe Illustrator 15.0.2, SVG Export Plug-In . SVG Version: 6.00 Build 0)  -->
<!DOCTYPE svg PUBLIC "-//W3C//DTD SVG 1.1//EN" "http://www.w3.org/Graphics/SVG/1.1/DTD/svg11.dtd">
<svg version="1.1" id="Layer_1" xmlns="http://www.w3.org/2000/svg" xmlns:xlink="http://www.w3.org/1999/xlink" x="0px" y="0px"
	 width="22.116px" height="30px" viewBox="0 0 22.116 30" enable-background="new 0 0 22.116 30" xml:space="preserve">
<g>
	<path fill="#E95A24" d="M17.909,26.072c0.229,0.035,0.455-0.016,0.635-0.151c0.188-0.135,0.309-0.332,0.344-0.56l0.205-1.34
		c0.039-0.267,0.203-0.501,0.447-0.623l1.213-0.606c0.209-0.104,0.361-0.277,0.432-0.495c0.068-0.22,0.045-0.454-0.053-0.658
		l-0.631-1.206c-0.121-0.238-0.121-0.523,0-0.763l0.631-1.207c0.098-0.203,0.121-0.436,0.053-0.658
		c-0.07-0.215-0.223-0.39-0.432-0.495l-1.213-0.605c-0.244-0.122-0.408-0.355-0.447-0.623l-0.205-1.34
		c-0.035-0.228-0.156-0.425-0.344-0.559c-0.18-0.134-0.406-0.192-0.635-0.152l-1.34,0.222c-0.268,0.046-0.537-0.042-0.729-0.234
		l-0.955-0.973c-0.156-0.156-0.373-0.25-0.605-0.25c-0.223,0-0.443,0.094-0.607,0.25l-0.949,0.973
		c-0.191,0.192-0.459,0.28-0.729,0.234l-1.338-0.222c-0.229-0.034-0.455,0.024-0.643,0.158c-0.18,0.129-0.309,0.332-0.338,0.56
		l-0.203,1.34c-0.041,0.268-0.211,0.495-0.449,0.617l-1.218,0.605c-0.197,0.105-0.354,0.286-0.424,0.501
		c-0.071,0.217-0.053,0.449,0.051,0.652l0.624,1.213c0.128,0.233,0.128,0.523,0,0.757l-0.624,1.214
		c-0.104,0.202-0.122,0.437-0.051,0.65c0.07,0.218,0.222,0.396,0.424,0.501l1.218,0.606c0.238,0.122,0.408,0.351,0.449,0.617
		l0.203,1.34c0.029,0.228,0.158,0.431,0.338,0.56c0.188,0.142,0.414,0.192,0.643,0.157l1.338-0.221
		c0.27-0.046,0.537,0.04,0.729,0.232l0.949,0.969c0.164,0.167,0.379,0.255,0.607,0.255c0.227,0,0.449-0.088,0.605-0.255l0.955-0.969
		c0.191-0.192,0.461-0.278,0.729-0.232L17.909,26.072z M14.28,25.092c-2.85,0-5.17-2.317-5.17-5.167s2.32-5.168,5.17-5.168
		c2.854,0,5.166,2.319,5.166,5.168S17.134,25.092,14.28,25.092L14.28,25.092z M14.28,25.092"/>
	<path fill="#E95A24" d="M14.28,15.503c-2.436,0-4.418,1.982-4.418,4.416c0,2.436,1.982,4.416,4.418,4.416
		c2.439,0,4.422-1.98,4.422-4.416C18.702,17.486,16.72,15.503,14.28,15.503L14.28,15.503z M14.28,15.503"/>
	<path fill="#E95A24" d="M21.981,27.039l-2.406-2.4l-0.123,0.811c-0.057,0.373-0.262,0.716-0.57,0.938
		c-0.303,0.222-0.682,0.314-1.064,0.257l-1.342-0.222c-0.109-0.006-0.18,0.023-0.227,0.077l-0.227,0.226l3.139,3.141
		c0.123,0.122,0.299,0.163,0.461,0.116c0.158-0.053,0.279-0.187,0.314-0.355l0.279-1.526l1.527-0.286
		c0.168-0.028,0.303-0.15,0.355-0.313C22.146,27.336,22.104,27.162,21.981,27.039L21.981,27.039z M21.981,27.039"/>
	<path fill="#E95A24" d="M12.13,26.416l-1.387,0.228c-0.385,0.058-0.764-0.035-1.066-0.263c-0.303-0.216-0.512-0.559-0.57-0.937
		l-0.123-0.806l-2.4,2.4c-0.122,0.123-0.163,0.298-0.117,0.461c0.052,0.163,0.187,0.279,0.355,0.313l1.527,0.286l0.285,1.526
		c0.03,0.169,0.152,0.303,0.314,0.355c0.158,0.047,0.34,0.006,0.457-0.116l3.139-3.141l-0.229-0.231
		C12.265,26.445,12.2,26.416,12.13,26.416L12.13,26.416z M12.13,26.416"/>
	<path fill="#E95A24" d="M15.649,5.034H4.392c-0.407,0-0.733,0.327-0.733,0.734c0,0.409,0.326,0.734,0.733,0.734h11.257
		c0.408,0,0.734-0.325,0.734-0.734C16.384,5.361,16.058,5.034,15.649,5.034L15.649,5.034z M15.649,5.034"/>
	<path fill="#E95A24" d="M15.649,8.797H4.392c-0.407,0-0.733,0.326-0.733,0.729c0,0.407,0.326,0.734,0.733,0.734h11.257
		c0.408,0,0.734-0.327,0.734-0.734C16.384,9.124,16.058,8.797,15.649,8.797L15.649,8.797z M15.649,8.797"/>
	<path fill="#E95A24" d="M7.836,24.12l-0.553-0.273c-0.14-0.076-0.268-0.163-0.391-0.267H2.155c-0.325,0-0.588-0.264-0.588-0.59
		V2.15c0-0.321,0.263-0.587,0.588-0.587h15.772c0.32,0,0.588,0.266,0.588,0.587v10.749c0.264,0.064,0.514,0.176,0.729,0.338
		c0.432,0.309,0.729,0.798,0.811,1.334l0.023-12.415c0-1.188-0.969-2.156-2.15-2.156H2.155C0.966,0,0,0.967,0,2.156v20.84
		c0,1.188,0.966,2.155,2.155,2.155H6.81L7.836,24.12z M7.836,24.12"/>
</g>
</svg>
