<?xml version="1.0" encoding="utf-8"?>
<!-- Generator: Adobe Illustrator 15.0.2, SVG Export Plug-In . SVG Version: 6.00 Build 0)  -->
<!DOCTYPE svg PUBLIC "-//W3C//DTD SVG 1.1//EN" "http://www.w3.org/Graphics/SVG/1.1/DTD/svg11.dtd">
<svg version="1.1" id="Layer_1" xmlns="http://www.w3.org/2000/svg" xmlns:xlink="http://www.w3.org/1999/xlink" x="0px" y="0px"
	 width="30.244px" height="30px" viewBox="0 0 30.244 30" enable-background="new 0 0 30.244 30" xml:space="preserve">
<g>
	<g>
		<path fill="#DADADA" d="M30.244,28.845V17.208c0-0.475-0.29-0.9-0.732-1.075l-11.039-4.322V1.155C18.473,0.518,17.954,0,17.317,0
			H1.155C0.518,0,0,0.518,0,1.155v27.689C0,29.481,0.518,30,1.155,30h5.374v-2.337c0-1.495,1.211-2.71,2.71-2.71
			c1.495,0,2.71,1.211,2.71,2.71V30h17.146C29.726,30,30.244,29.485,30.244,28.845L30.244,28.845z M7.084,22.596H3.555v-3.027
			c0-0.974,0.789-1.763,1.763-1.763s1.763,0.789,1.763,1.763v3.027H7.084z M7.084,15.334H3.555v-3.028
			c0-0.974,0.789-1.763,1.763-1.763s1.763,0.789,1.763,1.763v3.028H7.084z M7.084,8.068H3.555V5.041
			c0-0.974,0.789-1.763,1.763-1.763s1.763,0.789,1.763,1.763v3.027H7.084z M14.917,22.596h-3.529v-3.027
			c0-0.974,0.789-1.763,1.763-1.763s1.763,0.789,1.763,1.763v3.027H14.917z M14.917,15.334h-3.529v-3.028
			c0-0.974,0.789-1.763,1.763-1.763s1.763,0.789,1.763,1.763v3.028H14.917z M14.917,8.068h-3.529V5.041
			c0-0.974,0.789-1.763,1.763-1.763s1.763,0.789,1.763,1.763v3.027H14.917z M27.584,24.266h-6.447v-8.341l6.447,2.524V24.266z
			 M27.584,24.266"/>
	</g>
	<path fill="#DADADA" d="M19.81,0v8.817h8.817c0.637,0,1.155-0.519,1.155-1.156V1.155C29.782,0.518,29.264,0,28.627,0H19.81z
		 M27.188,6.803c0,0.363-0.297,0.661-0.66,0.661h-0.155c-0.363,0-0.66-0.297-0.66-0.661V4.984h-1.915v1.819
		c0,0.363-0.297,0.661-0.66,0.661h-0.155c-0.362,0-0.66-0.297-0.66-0.661V2.123c0-0.363,0.298-0.66,0.66-0.66h0.155
		c0.363,0,0.66,0.297,0.66,0.66v1.571h1.915V2.123c0-0.363,0.297-0.66,0.66-0.66h0.155c0.363,0,0.66,0.297,0.66,0.66V6.803z
		 M27.188,6.803"/>
</g>
</svg>
