<?xml version="1.0" encoding="utf-8"?>
<!-- Generator: Adobe Illustrator 15.0.2, SVG Export Plug-In . SVG Version: 6.00 Build 0)  -->
<!DOCTYPE svg PUBLIC "-//W3C//DTD SVG 1.1//EN" "http://www.w3.org/Graphics/SVG/1.1/DTD/svg11.dtd">
<svg version="1.1" id="Layer_1" xmlns="http://www.w3.org/2000/svg" xmlns:xlink="http://www.w3.org/1999/xlink" x="0px" y="0px"
	 width="37.259px" height="40px" viewBox="0 0 37.259 40" enable-background="new 0 0 37.259 40" xml:space="preserve">
<g>
	<g>
		<path fill="#FEDA00" d="M37.253,36.328l-1.147-21.022c-0.191-3.504-2.933-6.242-6.252-6.242h-2.017
			C27.759,4.053,23.658,0,18.629,0C13.6,0,9.501,4.053,9.421,9.063H7.405c-3.318,0-6.061,2.738-6.252,6.242L0.006,36.328
			C-0.104,38.321,1.395,40,3.281,40h30.696C35.863,40,37.361,38.321,37.253,36.328L37.253,36.328z M18.629,1.542
			c4.179,0,7.585,3.361,7.666,7.521H10.964C11.043,4.903,14.45,1.542,18.629,1.542L18.629,1.542z M11.25,18.757
			c0,0.586-0.476,1.06-1.061,1.06c-0.586,0-1.061-0.474-1.061-1.06v-4.689c0-0.586,0.475-1.062,1.061-1.062
			c0.585,0,1.061,0.476,1.061,1.062V18.757z M28.13,18.757c0,0.586-0.475,1.06-1.06,1.06c-0.586,0-1.061-0.474-1.061-1.06v-4.689
			c0-0.586,0.475-1.062,1.061-1.062c0.585,0,1.06,0.476,1.06,1.062V18.757z M28.13,18.757"/>
	</g>
</g>
</svg>
