<?xml version="1.0" encoding="utf-8"?>
<!-- Generator: Adobe Illustrator 15.0.2, SVG Export Plug-In . SVG Version: 6.00 Build 0)  -->
<!DOCTYPE svg PUBLIC "-//W3C//DTD SVG 1.1//EN" "http://www.w3.org/Graphics/SVG/1.1/DTD/svg11.dtd">
<svg version="1.1" id="Layer_1" xmlns="http://www.w3.org/2000/svg" xmlns:xlink="http://www.w3.org/1999/xlink" x="0px" y="0px"
	 width="30px" height="30px" viewBox="0 0 30 30" enable-background="new 0 0 30 30" xml:space="preserve">
<g>
	<path fill="#9E9E9E" d="M15,0C6.731,0,0,6.73,0,15c0,8.274,6.731,15,15,15c8.274,0,15-6.726,15-15C30,6.73,23.274,0,15,0L15,0z
		 M28.843,13.517c-1.242-1.032-3.01-1.69-3.75-1.938c0.005-0.044,0.008-0.088,0.008-0.132c0-0.547-0.193-1.065-0.56-1.468
		c0.467-0.553,1.331-1.688,1.812-3.027C27.7,8.849,28.584,11.088,28.843,13.517L28.843,13.517z M25.757,6.163
		c-0.381,1.467-1.426,2.824-1.861,3.324c-0.319-0.166-0.653-0.251-1.001-0.251c-0.047,0-0.087,0.002-0.129,0.008
		c-1.474-4.461-3.942-6.83-5.71-8.017C20.542,1.744,23.612,3.56,25.757,6.163L25.757,6.163z M24.3,11.447
		c0,0.772-0.637,1.402-1.405,1.402c-0.778,0-1.405-0.63-1.405-1.402c0-0.776,0.627-1.406,1.405-1.406
		C23.663,10.042,24.3,10.671,24.3,11.447L24.3,11.447z M15,1.077c0.037,0,0.073,0,0.111,0c1.205,0.541,4.95,2.626,6.868,8.363
		c-0.419,0.192-0.767,0.508-0.997,0.911c-3.478-1.1-6.849-1.656-10.033-1.656c-4.541,0-7.63,1.126-9.138,1.841
		C3.679,5.04,8.884,1.077,15,1.077L15,1.077z M1.077,15c0-1.173,0.146-2.311,0.419-3.397c0.923-0.531,4.118-2.109,9.433-2.109
		c3.097,0,6.385,0.546,9.778,1.617c-0.016,0.112-0.025,0.224-0.025,0.336c0,0.574,0.222,1.114,0.631,1.529
		C15.156,21.029,7.807,24.899,6.119,25.718C3.04,23.159,1.077,19.304,1.077,15L1.077,15z M15,28.927
		c-3.054,0-5.876-0.992-8.174-2.662c2.264-1.161,9.302-5.167,15.14-12.825c0.402,0.192,0.822,0.252,1.252,0.19
		c0.43,1.05,2.593,6.987-0.499,12.957C20.506,28.061,17.854,28.927,15,28.927L15,28.927z M24.082,25.542
		c2.237-5.635,0.431-10.858-0.103-12.182c0.407-0.229,0.726-0.579,0.917-0.997c0.843,0.288,3.038,1.125,4.024,2.356
		c0.003,0.091,0.01,0.184,0.01,0.28C28.927,19.207,27.045,22.983,24.082,25.542L24.082,25.542z M24.082,25.542"/>
</g>
</svg>
