<?xml version="1.0" encoding="utf-8"?>
<!-- Generator: Adobe Illustrator 15.0.2, SVG Export Plug-In . SVG Version: 6.00 Build 0)  -->
<!DOCTYPE svg PUBLIC "-//W3C//DTD SVG 1.1//EN" "http://www.w3.org/Graphics/SVG/1.1/DTD/svg11.dtd">
<svg version="1.1" id="Layer_1" xmlns="http://www.w3.org/2000/svg" xmlns:xlink="http://www.w3.org/1999/xlink" x="0px" y="0px"
	 width="28.251px" height="50px" viewBox="0 0 28.251 50" enable-background="new 0 0 28.251 50" xml:space="preserve">
<g>
	<path fill="#FEDA00" d="M25.069,12.498h-4.443V2.453C20.625,1.102,19.551,0,18.201,0H10.05C8.699,0,7.619,1.102,7.619,2.453v10.045
		H3.181C1.426,12.498,0,13.923,0,15.679v29.507c0,1.761,1.426,3.181,3.181,3.181h2.314C5.741,49.309,6.592,50,7.603,50
		c1.017,0,1.868-0.691,2.107-1.634h8.832C18.78,49.309,19.631,50,20.649,50c1.011,0,1.867-0.691,2.105-1.634h2.314
		c1.757,0,3.183-1.42,3.183-3.181V15.679C28.251,13.923,26.826,12.498,25.069,12.498L25.069,12.498z M10.869,5.869
		c0-0.538,0.432-0.99,0.968-0.99h4.57c0.537,0,0.969,0.452,0.969,0.99v6.628h-6.507V5.869z M23.904,22.26H4.342
		c-0.9,0-1.628-0.728-1.628-1.628c0-0.899,0.729-1.627,1.628-1.627h19.562c0.905,0,1.634,0.729,1.634,1.627
		C25.538,21.532,24.802,22.26,23.904,22.26L23.904,22.26z M23.904,22.26"/>
</g>
</svg>
