<?xml version="1.0" encoding="utf-8"?>
<!-- Generator: Adobe Illustrator 15.0.2, SVG Export Plug-In . SVG Version: 6.00 Build 0)  -->
<!DOCTYPE svg PUBLIC "-//W3C//DTD SVG 1.1//EN" "http://www.w3.org/Graphics/SVG/1.1/DTD/svg11.dtd">
<svg version="1.1" id="Layer_1" xmlns="http://www.w3.org/2000/svg" xmlns:xlink="http://www.w3.org/1999/xlink" x="0px" y="0px"
	 width="25.274px" height="29.417px" viewBox="0 0 25.274 29.417" enable-background="new 0 0 25.274 29.417" xml:space="preserve">
<g>
	<g>
		<path fill="#666666" d="M20.206,9.729l4.142-6.345c0,0,1.383-1.816,0.555-2.728c-0.829-0.904-2.646,0.694-2.646,0.694
			l-5.658,5.936L3.046,6.49L0.601,9.135l11.695,3.784l-5.684,8.864c-0.151,0.192-0.294,0.385-0.419,0.578l-4.345-1.197l-1.74,2.201
			l4.68,1.507l0.199,0.167l0.688,0.536l0.602,0.478l2.284,3.364l1.616-2.051L7.55,23.398c0.101-0.083,0.191-0.184,0.276-0.293
			l7.817-7.784l0.125,0.108l7.148,10.799l1.75-2.679l-4.42-13.787L20.206,9.729z M20.206,9.729"/>
	</g>
</g>
</svg>
