<?xml version="1.0" encoding="utf-8"?>
<!-- Generator: Adobe Illustrator 15.0.2, SVG Export Plug-In . SVG Version: 6.00 Build 0)  -->
<!DOCTYPE svg PUBLIC "-//W3C//DTD SVG 1.1//EN" "http://www.w3.org/Graphics/SVG/1.1/DTD/svg11.dtd">
<svg version="1.1" id="Layer_1" xmlns="http://www.w3.org/2000/svg" xmlns:xlink="http://www.w3.org/1999/xlink" x="0px" y="0px"
	 width="25.274px" height="29.417px" viewBox="0 0 25.274 29.417" enable-background="new 0 0 25.274 29.417" xml:space="preserve">
<g>
	<g>
		<path fill="#666666" d="M5.069,20.067l-4.142,6.345c0,0-1.383,1.815-0.555,2.728c0.829,0.904,2.646-0.693,2.646-0.693l5.658-5.936
			l13.552,0.795l2.445-2.645l-11.695-3.784l5.685-8.864c0.15-0.192,0.294-0.385,0.419-0.578l4.345,1.197l1.74-2.201l-4.68-1.507
			l-0.199-0.167L19.599,4.22l-0.602-0.478l-2.284-3.364l-1.616,2.051l2.627,3.968c-0.101,0.083-0.19,0.184-0.276,0.293L9.63,14.474
			l-0.125-0.108L2.357,3.567l-1.75,2.679l4.42,13.787L5.069,20.067z M5.069,20.067"/>
	</g>
</g>
</svg>
