<?xml version="1.0" encoding="utf-8"?>
<!-- Generator: Adobe Illustrator 15.0.2, SVG Export Plug-In . SVG Version: 6.00 Build 0)  -->
<!DOCTYPE svg PUBLIC "-//W3C//DTD SVG 1.1//EN" "http://www.w3.org/Graphics/SVG/1.1/DTD/svg11.dtd">
<svg version="1.1" id="Layer_1" xmlns="http://www.w3.org/2000/svg" xmlns:xlink="http://www.w3.org/1999/xlink" x="0px" y="0px"
	 width="55.383px" height="60px" viewBox="0 0 55.383 60" enable-background="new 0 0 55.383 60" xml:space="preserve">
<g>
	<path fill="#FEDA00" d="M53.618,33.533c1.178-1.776,1.765-3.737,1.765-5.876c0-2.476-0.913-4.627-2.737-6.457
		c-1.828-1.825-3.99-2.739-6.492-2.739h-6.346c1.154-2.379,1.729-4.688,1.729-6.921c0-2.814-0.422-5.048-1.261-6.708
		c-0.842-1.659-2.068-2.878-3.679-3.66C34.986,0.39,33.171,0,31.153,0c-1.225,0-2.31,0.445-3.245,1.333
		c-1.035,1.011-1.778,2.311-2.236,3.896c-0.457,1.585-0.823,3.105-1.101,4.559c-0.273,1.455-0.703,2.484-1.278,3.084
		c-1.178,1.274-2.464,2.813-3.858,4.615c-2.429,3.149-4.075,5.012-4.939,5.589H4.617c-1.276,0-2.363,0.451-3.264,1.352
		C0.452,25.33,0,26.419,0,27.692v23.079c0,1.272,0.449,2.361,1.353,3.26c0.9,0.902,1.987,1.354,3.264,1.354H15
		c0.528,0,2.186,0.48,4.976,1.441c2.956,1.036,5.558,1.821,7.807,2.361C30.029,59.73,32.308,60,34.612,60h4.652
		c3.391,0,6.116-0.968,8.185-2.905c2.068-1.934,3.089-4.571,3.065-7.912c1.441-1.852,2.166-3.99,2.166-6.42
		c0-0.528-0.039-1.044-0.11-1.549c0.913-1.61,1.371-3.34,1.371-5.19C53.941,35.156,53.835,34.325,53.618,33.533L53.618,33.533z
		 M8.546,50.085c-0.458,0.453-0.997,0.686-1.623,0.686c-0.624,0-1.167-0.232-1.623-0.686c-0.455-0.457-0.684-0.996-0.684-1.623
		c0-0.626,0.226-1.165,0.684-1.623c0.457-0.456,0.999-0.686,1.623-0.686c0.626,0,1.166,0.229,1.623,0.686
		c0.456,0.458,0.686,0.997,0.686,1.623C9.232,49.089,9.002,49.628,8.546,50.085L8.546,50.085z M49.992,30.614
		c-0.516,1.107-1.16,1.672-1.927,1.695c0.357,0.409,0.66,0.979,0.901,1.711c0.24,0.736,0.358,1.4,0.358,2.003
		c0,1.657-0.635,3.089-1.91,4.29c0.434,0.768,0.65,1.598,0.65,2.488c0,0.887-0.212,1.771-0.634,2.649
		c-0.417,0.878-0.989,1.507-1.711,1.893c0.122,0.721,0.181,1.395,0.181,2.017c0,4.018-2.309,6.022-6.925,6.022h-4.36
		c-3.151,0-7.261-0.874-12.333-2.631c-0.121-0.048-0.468-0.175-1.045-0.381c-0.577-0.204-1.002-0.353-1.278-0.446
		c-0.278-0.099-0.699-0.238-1.263-0.416c-0.567-0.182-1.022-0.315-1.371-0.398c-0.349-0.082-0.745-0.163-1.19-0.233
		c-0.445-0.071-0.823-0.106-1.137-0.106h-1.151V27.694H15c0.384,0,0.812-0.111,1.281-0.326c0.468-0.216,0.949-0.541,1.441-0.973
		c0.493-0.433,0.956-0.861,1.389-1.282c0.433-0.419,0.913-0.947,1.441-1.586c0.53-0.638,0.945-1.147,1.245-1.532
		c0.301-0.384,0.679-0.878,1.134-1.479c0.459-0.601,0.735-0.961,0.831-1.082c1.322-1.634,2.248-2.728,2.777-3.281
		c0.984-1.032,1.7-2.35,2.143-3.947c0.448-1.6,0.813-3.108,1.1-4.526c0.289-1.417,0.745-2.44,1.372-3.067
		c2.309,0,3.845,0.567,4.612,1.698c0.771,1.129,1.154,2.872,1.154,5.227c0,1.418-0.575,3.347-1.729,5.787
		c-1.154,2.44-1.729,4.356-1.729,5.751h12.69c1.202,0,2.27,0.463,3.207,1.388c0.941,0.925,1.41,2.001,1.41,3.226
		C50.771,28.535,50.509,29.508,49.992,30.614L49.992,30.614z M49.992,30.614"/>
</g>
</svg>
