<?xml version="1.0" encoding="utf-8"?>
<!-- Generator: Adobe Illustrator 15.0.2, SVG Export Plug-In . SVG Version: 6.00 Build 0)  -->
<!DOCTYPE svg PUBLIC "-//W3C//DTD SVG 1.1//EN" "http://www.w3.org/Graphics/SVG/1.1/DTD/svg11.dtd">
<svg version="1.1" id="Layer_1" xmlns="http://www.w3.org/2000/svg" xmlns:xlink="http://www.w3.org/1999/xlink" x="0px" y="0px"
	 width="28.852px" height="30px" viewBox="0 0 28.852 30" enable-background="new 0 0 28.852 30" xml:space="preserve">
<g>
	<g>
		<path fill="#9E9E9E" d="M27.208,13.493c-0.853,0-1.99,0.5-3.146,1.375l-0.928-4.731c1.169-1.178,5.712-5.877,5.718-8.161
			c0-0.518-0.21-0.832-0.39-1.01c-0.173-0.174-0.488-0.382-0.989-0.382c-2.33,0-7.293,4.799-8.448,5.952l-4.049-0.715
			c1.144-1.653,1.422-3.122,0.687-3.854c-0.186-0.187-0.526-0.407-1.095-0.407c-1.174,0-2.911,0.974-4.419,2.479
			C9.896,4.29,9.66,4.542,9.444,4.801C8.573,4.542,6.297,3.92,5.383,4.172C4.401,4.438,2.671,6.331,2.331,6.708
			C2.224,6.825,2.182,6.991,2.212,7.146c0.032,0.159,0.136,0.288,0.285,0.356l10.842,4.967l-6.397,7.766
			c-0.081,0.08-0.155,0.159-0.229,0.239c-0.928-0.554-3.227-1.8-4.271-1.579c-0.816,0.162-1.916,1.618-2.348,2.233
			c-0.087,0.122-0.119,0.278-0.074,0.421c0.036,0.147,0.142,0.265,0.278,0.326l4.486,2.055l1.255,1.252l1.893,3.615
			c0.061,0.122,0.185,0.22,0.321,0.252c0.043,0.013,0.087,0.019,0.124,0.019c0.104,0,0.204-0.032,0.292-0.093
			c0.587-0.402,1.971-1.431,2.094-2.214c0.186-1.142-1.299-3.35-2.002-4.33l8.362-6.571l5.767,11.413
			c0.074,0.143,0.204,0.239,0.358,0.271c0.161,0.022,0.315-0.019,0.433-0.123c0.34-0.305,2.021-1.863,2.25-2.758
			c0.26-1.012-0.438-3.345-0.754-4.319c0.364-0.288,0.724-0.604,1.057-0.942c0.965-0.964,1.725-2.019,2.139-2.979
			c0.482-1.109,0.458-2.005-0.062-2.523C28.123,13.715,27.783,13.493,27.208,13.493L27.208,13.493z M27.443,16.022
			c-0.371,0.851-1.051,1.795-1.929,2.664c-0.39,0.395-0.804,0.753-1.236,1.065c-0.179,0.137-0.253,0.366-0.179,0.576
			c0.451,1.307,1.014,3.44,0.847,4.082c-0.087,0.326-0.754,1.104-1.459,1.803l-5.661-11.204c-0.025-0.047-0.056-0.091-0.1-0.129
			l-0.117-0.123c-0.179-0.178-0.47-0.191-0.667-0.036l-8.92,6.999c-0.079,0.082-0.16,0.143-0.247,0.204
			c-0.117,0.082-0.191,0.197-0.217,0.341c-0.017,0.136,0.013,0.278,0.1,0.381c1.087,1.433,2.199,3.343,2.101,3.954
			c-0.048,0.197-0.574,0.722-1.205,1.211l-1.657-3.165c-0.024-0.043-0.049-0.088-0.085-0.123l-1.378-1.376
			c-0.045-0.038-0.093-0.073-0.149-0.1l-4-1.825c0.557-0.708,1.15-1.288,1.459-1.346c0.811,0,2.763,1.032,3.803,1.68
			c0.21,0.129,0.5,0.086,0.661-0.111c0.136-0.175,0.289-0.333,0.487-0.536l6.837-8.31c0.098-0.116,0.141-0.278,0.104-0.431
			c-0.037-0.154-0.142-0.277-0.285-0.345L3.554,6.874C4.295,6.11,5.23,5.259,5.642,5.147c0.051-0.013,0.149-0.03,0.317-0.03
			c1.161,0,3.479,0.739,3.503,0.752C9.66,5.93,9.877,5.862,10.013,5.703c0.253-0.321,0.538-0.637,0.853-0.951
			c1.501-1.499,2.967-2.185,3.696-2.185c0.123,0,0.291,0.02,0.382,0.112c0.304,0.302,0.032,1.58-1.261,3.175
			c-0.117,0.143-0.141,0.327-0.079,0.501c0.062,0.166,0.209,0.284,0.383,0.314l5.118,0.907c0.16,0.032,0.334-0.024,0.451-0.143
			c2.231-2.256,6.354-5.84,7.911-5.84c0.191,0,0.26,0.068,0.278,0.086c0.043,0.037,0.093,0.111,0.093,0.29
			c-0.006,1.548-3.455,5.521-5.631,7.661c-0.143,0.143-0.167,0.365-0.099,0.556l1.118,5.706c0.037,0.178,0.161,0.321,0.334,0.383
			c0.173,0.054,0.365,0.019,0.501-0.099c1.155-1.018,2.392-1.673,3.146-1.673c0.124,0,0.291,0.02,0.384,0.111
			C27.74,14.763,27.789,15.221,27.443,16.022L27.443,16.022z M27.443,16.022"/>
	</g>
</g>
</svg>
