<?xml version="1.0" encoding="utf-8"?>
<!-- Generator: Adobe Illustrator 15.0.2, SVG Export Plug-In . SVG Version: 6.00 Build 0)  -->
<!DOCTYPE svg PUBLIC "-//W3C//DTD SVG 1.1//EN" "http://www.w3.org/Graphics/SVG/1.1/DTD/svg11.dtd">
<svg version="1.1" id="Layer_1" xmlns="http://www.w3.org/2000/svg" xmlns:xlink="http://www.w3.org/1999/xlink" x="0px" y="0px"
	 width="60px" height="40.137px" viewBox="0 0 60 40.137" enable-background="new 0 0 60 40.137" xml:space="preserve">
<g>
	<path fill="#FEDA00" d="M52.828,0H7.172C3.217,0,0,3.217,0,7.172v25.792c0,3.955,3.217,7.173,7.172,7.173h45.656
		c3.954,0,7.172-3.218,7.172-7.173V7.172C60,3.217,56.782,0,52.828,0L52.828,0z M56.032,32.964c0,1.767-1.438,3.204-3.204,3.204
		H7.172c-1.766,0-3.203-1.438-3.203-3.204V15.68h52.063V32.964z M56.032,10.019L3.969,10.022V7.172c0-1.767,1.438-3.204,3.204-3.204
		h45.655c1.767,0,3.204,1.438,3.204,3.204V10.019z M56.032,10.019"/>
	<path fill="#FEDA00" d="M8.894,32.487h10.864c0.389,0,0.704-0.315,0.704-0.704V29.64c0-0.39-0.315-0.705-0.704-0.705H8.894
		c-0.389,0-0.704,0.315-0.704,0.705v2.144C8.189,32.172,8.505,32.487,8.894,32.487L8.894,32.487z M8.894,32.487"/>
	<path fill="#FEDA00" d="M44.114,32.487h3.231c1.864,0,3.376-1.512,3.376-3.377v-3.231c0-1.864-1.512-3.376-3.376-3.376h-3.231
		c-1.865,0-3.377,1.512-3.377,3.376v3.231C40.737,30.976,42.249,32.487,44.114,32.487L44.114,32.487z M44.114,32.487"/>
</g>
</svg>
