<?xml version="1.0" encoding="utf-8"?>
<!-- Generator: Adobe Illustrator 15.0.2, SVG Export Plug-In . SVG Version: 6.00 Build 0)  -->
<!DOCTYPE svg PUBLIC "-//W3C//DTD SVG 1.1//EN" "http://www.w3.org/Graphics/SVG/1.1/DTD/svg11.dtd">
<svg version="1.1" id="Layer_1" xmlns="http://www.w3.org/2000/svg" xmlns:xlink="http://www.w3.org/1999/xlink" x="0px" y="0px"
	 width="30px" height="25.993px" viewBox="0 0 30 25.993" enable-background="new 0 0 30 25.993" xml:space="preserve">
<g>
	<g>
		<path fill="#444444" d="M29.774,8.157L12.777,0.04c-0.197-0.095-0.435-0.012-0.53,0.185L8.548,7.963h2.015l2.715-5.687
			l14.738,7.039l-4.608,9.643l-2.597-1.237v5.099l1.597,0.763c0.197,0.095,0.435,0.008,0.529-0.19l7.023-14.705
			C30.056,8.489,29.973,8.251,29.774,8.157L29.774,8.157z M29.774,8.157"/>
	</g>
	<path fill="#444444" d="M19.234,8.9H0.399C0.182,8.9,0,9.077,0,9.295v16.299c0,0.221,0.182,0.398,0.399,0.398h18.835
		c0.218,0,0.396-0.178,0.396-0.398V9.295C19.634,9.077,19.452,8.9,19.234,8.9L19.234,8.9z M18.147,21.393h-1.193
		c-0.695-1.782-1.553-4.28-2.853-3.948c-1.521,0.391-2.28,3.948-2.28,3.948s-0.779-4.016-2.929-6.161
		c-2.15-2.151-4.229,6.161-4.229,6.161H1.818v-10.69h16.33V21.393z M18.147,21.393"/>
	<path fill="#444444" d="M5.786,12.994c0,0.74-0.597,1.337-1.333,1.337c-0.734,0-1.331-0.597-1.331-1.337
		c0-0.734,0.597-1.332,1.331-1.332C5.189,11.662,5.786,12.259,5.786,12.994L5.786,12.994z M5.786,12.994"/>
	<path fill="#444444" d="M13.389,13.935c0.3,0,0.582-0.031,0.831-0.079c0.288,0.123,0.644,0.198,1.027,0.198
		c0.98,0,1.778-0.479,1.778-1.071s-0.798-1.072-1.778-1.072c-0.372,0-0.711,0.068-0.996,0.187c-0.114-0.116-0.273-0.187-0.446-0.187
		h-0.257c-0.333,0-0.589,0.249-0.628,0.57c-0.795,0.083-1.388,0.371-1.388,0.711C11.532,13.603,12.366,13.935,13.389,13.935
		L13.389,13.935z M13.389,13.935"/>
</g>
</svg>
