<?xml version="1.0" encoding="utf-8"?>
<!-- Generator: Adobe Illustrator 15.0.2, SVG Export Plug-In . SVG Version: 6.00 Build 0)  -->
<!DOCTYPE svg PUBLIC "-//W3C//DTD SVG 1.1//EN" "http://www.w3.org/Graphics/SVG/1.1/DTD/svg11.dtd">
<svg version="1.1" id="Layer_1" xmlns="http://www.w3.org/2000/svg" xmlns:xlink="http://www.w3.org/1999/xlink" x="0px" y="0px"
	 width="25.715px" height="30px" viewBox="0 0 25.715 30" enable-background="new 0 0 25.715 30" xml:space="preserve">
<g>
	<g>
		<path fill="#FEDA00" d="M20.098,9.349l4.142-6.345c0,0,1.383-1.815,0.555-2.728c-0.829-0.904-2.646,0.693-2.646,0.693L16.49,6.906
			L2.938,6.11L0.493,8.755l11.696,3.784l-5.685,8.864c-0.15,0.192-0.294,0.385-0.418,0.578L1.74,20.784L0,22.985l4.681,1.507
			l0.199,0.167l0.688,0.536l0.602,0.478l2.284,3.364l1.616-2.051l-2.627-3.968c0.1-0.083,0.19-0.184,0.276-0.293l7.817-7.784
			l0.125,0.108l7.148,10.799l1.75-2.679L20.14,9.383L20.098,9.349z M20.098,9.349"/>
	</g>
</g>
</svg>
