<?xml version="1.0" encoding="utf-8"?>
<!-- Generator: Adobe Illustrator 15.0.2, SVG Export Plug-In . SVG Version: 6.00 Build 0)  -->
<!DOCTYPE svg PUBLIC "-//W3C//DTD SVG 1.1//EN" "http://www.w3.org/Graphics/SVG/1.1/DTD/svg11.dtd">
<svg version="1.1" id="Layer_1" xmlns="http://www.w3.org/2000/svg" xmlns:xlink="http://www.w3.org/1999/xlink" x="0px" y="0px"
	 width="33.938px" height="29.888px" viewBox="0 0 33.938 29.888" enable-background="new 0 0 33.938 29.888" xml:space="preserve">
<g>
	<g>
		<path fill="#E95A24" d="M32.78,0c-0.122,0-0.205,0-0.325,0.042c-0.041,0-0.083,0-0.083,0.042L22.355,3.992l-9.771-3.789
			c-0.042,0-0.042,0-0.083-0.042c-0.203-0.042-0.49-0.121-0.897-0.121h-0.079c-0.449,0-0.855,0.083-1.263,0.246
			c-0.042,0-0.12,0.041-0.162,0.041L1.226,3.789C0.208,4.196-0.037,5.093,0.004,5.58v23.086c0,0.121,0,0.61,0.366,0.977
			c0.203,0.203,0.49,0.324,0.772,0.324c0.163,0,0.366-0.042,0.528-0.121l9.892-3.868l9.447,3.665l0.245,0.083
			c0.203,0.082,0.569,0.162,1.101,0.162h0.042c0.489,0,0.897-0.083,1.341-0.245l9.203-3.582c0,0,0.042,0,0.042-0.041
			c0.609-0.286,0.935-0.855,0.935-1.545V1.263C33.88,0.407,33.307,0,32.78,0L32.78,0z M1.471,28.297V5.58
			c0-0.083,0.042-0.287,0.286-0.366l8.795-3.419c0.083,0,0.121-0.042,0.204-0.042v22.962L1.471,28.297z M12.26,24.674V1.67
			l9.323,3.623v23.004L12.26,24.674z M32.372,24.512c0,0.12-0.041,0.162-0.083,0.162l-9.16,3.582c0,0-0.042,0-0.042,0.041V5.293
			l9.282-3.623v22.842H32.372z M25.248,19.136c0.203-0.365,0.692-0.49,1.018-0.245l1.18,0.694l1.06-1.671
			c0.203-0.365,0.693-0.448,1.06-0.245c0.365,0.204,0.448,0.694,0.244,1.06l-1.059,1.628l1.138,0.694
			c0.365,0.204,0.49,0.693,0.245,1.019c-0.12,0.245-0.407,0.365-0.651,0.365c-0.122,0-0.245-0.042-0.366-0.12l-1.18-0.693
			l-1.06,1.669c-0.162,0.245-0.407,0.365-0.652,0.365c-0.121,0-0.286-0.04-0.407-0.12c-0.365-0.203-0.448-0.693-0.245-1.06
			l1.06-1.628l-1.139-0.694C25.164,19.95,25.043,19.502,25.248,19.136L25.248,19.136z M25.248,19.136"/>
	</g>
</g>
</svg>
