<?xml version="1.0" encoding="utf-8"?>
<!-- Generator: Adobe Illustrator 15.0.2, SVG Export Plug-In . SVG Version: 6.00 Build 0)  -->
<!DOCTYPE svg PUBLIC "-//W3C//DTD SVG 1.1//EN" "http://www.w3.org/Graphics/SVG/1.1/DTD/svg11.dtd">
<svg version="1.1" id="Layer_1" xmlns="http://www.w3.org/2000/svg" xmlns:xlink="http://www.w3.org/1999/xlink" x="0px" y="0px"
	 width="44.453px" height="60px" viewBox="0 0 44.453 60" enable-background="new 0 0 44.453 60" xml:space="preserve">
<g>
	<path fill="#FEDA00" d="M35.976,17.7c-8.468,5.187-14.568,11.75-17.045,14.661l-6.361-4.983c-0.175-0.12-3.658,2.977-3.565,3.07
		l11.581,11.785c0.082,0.093,0.203,0.139,0.333,0.139c0.02,0,0.054,0,0.083-0.009c0.156-0.027,0.286-0.139,0.343-0.286
		c1.866-4.771,8.032-14.762,15.898-22.011c0.139-0.128,0.193-0.341,0.11-0.515C37.353,19.541,36.096,17.626,35.976,17.7L35.976,17.7
		z M35.976,17.7"/>
	<path fill="#FEDA00" d="M43.574,7.273c-17.544,0-20.511-6.664-20.539-6.72C22.906,0.222,22.591,0.009,22.232,0h-0.009
		c-0.353,0-0.677,0.222-0.814,0.535C21.39,0.61,18.357,7.273,0.878,7.273C0.388,7.273,0,7.672,0,8.143v29.849
		c0,12.211,20.983,21.547,21.87,21.935C21.99,59.981,22.101,60,22.232,60c0.108,0,0.239-0.019,0.35-0.074
		c0.897-0.388,21.871-9.724,21.871-21.935V8.143C44.453,7.672,44.064,7.273,43.574,7.273L43.574,7.273z M39.627,36.253
		c0,9.559-16.426,16.87-17.129,17.175c-0.082,0.046-0.184,0.056-0.276,0.056s-0.187-0.01-0.28-0.056
		c-0.684-0.305-17.118-7.616-17.118-17.175V12.894c0-0.378,0.305-0.683,0.684-0.683c13.679,0,16.055-5.223,16.083-5.27
		c0.102-0.259,0.35-0.424,0.63-0.424h0.009c0.276,0,0.525,0.176,0.627,0.434c0.028,0.047,2.349,5.261,16.084,5.261
		c0.379,0,0.685,0.305,0.685,0.683V36.253z M39.627,36.253"/>
</g>
</svg>
