<?xml version="1.0" encoding="utf-8"?>
<!-- Generator: Adobe Illustrator 15.0.2, SVG Export Plug-In . SVG Version: 6.00 Build 0)  -->
<!DOCTYPE svg PUBLIC "-//W3C//DTD SVG 1.1//EN" "http://www.w3.org/Graphics/SVG/1.1/DTD/svg11.dtd">
<svg version="1.1" id="Layer_1" xmlns="http://www.w3.org/2000/svg" xmlns:xlink="http://www.w3.org/1999/xlink" x="0px" y="0px"
	 width="29.979px" height="30px" viewBox="0 0 29.979 30" enable-background="new 0 0 29.979 30" xml:space="preserve">
<g>
	<g>
		<path fill="#DADADA" d="M29.979,5.753c0,4.563-1.989,7.871-2.068,8.008c-0.17,0.276-0.459,0.425-0.76,0.425
			c-0.158,0-0.317-0.041-0.464-0.125c-0.42-0.256-0.556-0.806-0.301-1.226c0.022-0.028,1.813-3.043,1.813-7.083
			c0-2.301-1.496-3.973-3.559-3.973c-1.967,0-3.564,1.597-3.564,3.564c0,0.833,0.407,2.964,0.561,3.711
			c0.103,0.483-0.21,0.953-0.691,1.055c-0.481,0.096-0.952-0.209-1.049-0.692c-0.063-0.294-0.601-2.901-0.601-4.074
			C19.296,2.398,21.694,0,24.641,0C27.684,0,29.979,2.471,29.979,5.753L29.979,5.753z M24.789,7.158
			c0.356,2.958,0.866,8.721,0.277,9.304L12.127,29.401c-0.793,0.799-2.085,0.799-2.878,0l-8.653-8.648
			c-0.794-0.793-0.794-2.085,0-2.884L13.533,4.938c0.21-0.21,2.443-0.216,4.958-0.086c-0.011,0.164-0.045,0.324-0.045,0.493
			c0,0.646,0.141,1.644,0.289,2.522c-0.261,0.392-0.419,0.861-0.419,1.371c0,1.35,1.099,2.449,2.448,2.449
			c1.354,0,2.448-1.099,2.448-2.449c0-0.833-0.419-1.564-1.054-2.005c-0.13-0.776-0.232-1.525-0.232-1.888
			c0-0.08,0.017-0.154,0.022-0.231c0.312,0.033,0.618,0.068,0.907,0.101C24.561,5.425,24.579,5.425,24.789,7.158L24.789,7.158z"/>
	</g>
</g>
</svg>
