<?xml version="1.0" encoding="utf-8"?>
<!-- Generator: Adobe Illustrator 15.0.2, SVG Export Plug-In . SVG Version: 6.00 Build 0)  -->
<!DOCTYPE svg PUBLIC "-//W3C//DTD SVG 1.1//EN" "http://www.w3.org/Graphics/SVG/1.1/DTD/svg11.dtd">
<svg version="1.1" id="Layer_1" xmlns="http://www.w3.org/2000/svg" xmlns:xlink="http://www.w3.org/1999/xlink" x="0px" y="0px"
	 width="29.337px" height="30px" viewBox="0 0 29.337 30" enable-background="new 0 0 29.337 30" xml:space="preserve">
<g>
	<path fill="#FEDA00" d="M14.402,9.779c-0.758,0-1.262,0.074-1.552,0.146v4.885c0.331,0.073,0.72,0.099,1.259,0.099
		c1.989,0,3.217-1.008,3.217-2.7C17.323,10.688,16.267,9.779,14.402,9.779L14.402,9.779z M14.402,9.779"/>
	<path fill="#FEDA00" d="M25.786,0H3.554C1.591,0,0,1.59,0,3.554v22.892C0,28.409,1.591,30,3.554,30h22.232
		c1.961,0,3.552-1.594,3.552-3.555V3.554C29.337,1.59,27.747,0,25.786,0L25.786,0z M27.147,25.875c0,1.068-0.864,1.935-1.932,1.935
		H4.083c-1.068,0-1.935-0.866-1.935-1.935V4.163c0-1.064,0.867-1.933,1.935-1.933h21.132c1.067,0,1.932,0.868,1.932,1.933V25.875z
		 M27.147,25.875"/>
	<path fill="#FEDA00" d="M25.215,3.596H4.083c-0.315,0-0.57,0.255-0.57,0.57v21.709c0,0.315,0.255,0.57,0.57,0.57h21.132
		c0.313,0,0.57-0.255,0.57-0.57V4.163C25.786,3.851,25.528,3.596,25.215,3.596L25.215,3.596z M19.512,16.037
		c-1.275,1.202-3.169,1.744-5.378,1.744c-0.491,0-0.912-0.025-1.284-0.077v5.93H9.174V7.3c1.157-0.194,2.764-0.345,5.046-0.345
		c2.308,0,3.947,0.443,5.052,1.326c1.056,0.836,1.767,2.209,1.767,3.829C21.036,13.732,20.494,15.106,19.512,16.037L19.512,16.037z
		 M19.512,16.037"/>
</g>
</svg>
