<?xml version="1.0" encoding="utf-8"?>
<!-- Generator: Adobe Illustrator 15.0.2, SVG Export Plug-In . SVG Version: 6.00 Build 0)  -->
<!DOCTYPE svg PUBLIC "-//W3C//DTD SVG 1.1//EN" "http://www.w3.org/Graphics/SVG/1.1/DTD/svg11.dtd">
<svg version="1.1" id="Layer_1" xmlns="http://www.w3.org/2000/svg" xmlns:xlink="http://www.w3.org/1999/xlink" x="0px" y="0px"
	 width="30px" height="30px" viewBox="0 0 30 30" enable-background="new 0 0 30 30" xml:space="preserve">
<g>
	<path fill="#9E9E9E" d="M14.998,0C6.729,0,0,6.729,0,15.001C0,23.271,6.729,30,14.998,30C23.27,30,30,23.271,30,15.001
		C30,6.729,23.27,0,14.998,0L14.998,0z M23.647,23.268v-0.593c0-2.045-2.362-2.791-3.628-3.334c-0.457-0.194-1.321-0.61-2.207-1.041
		c-0.301-0.147-0.569-0.537-0.604-0.87l-0.097-0.968c0.678-0.632,1.289-1.51,1.392-2.49h0.153c0.239,0,0.467-0.179,0.502-0.401
		l0.242-1.484c0.029-0.316-0.269-0.508-0.511-0.508c0.006-0.032,0.012-0.064,0.015-0.091c0.032-0.177,0.051-0.348,0.063-0.516
		c0.015-0.136,0.029-0.274,0.032-0.419c0.026-0.698-0.092-1.313-0.289-1.655c-0.198-0.478-0.502-0.944-0.921-1.342
		c-1.174-1.109-2.531-1.54-3.69-0.65c-0.788-0.135-1.726,0.224-2.405,1.018c-0.368,0.434-0.599,0.929-0.698,1.417
		c-0.089,0.303-0.145,0.673-0.159,1.068c-0.018,0.445,0.026,0.85,0.108,1.177c-0.229,0.014-0.463,0.203-0.463,0.504l0.239,1.481
		c0.036,0.222,0.263,0.401,0.504,0.401h0.136c0.218,1.059,0.782,1.93,1.404,2.537l-0.094,0.936c-0.032,0.333-0.303,0.723-0.602,0.87
		c-0.858,0.419-1.702,0.82-2.206,1.029c-1.193,0.49-3.629,1.286-3.629,3.331v0.463c-1.985-2.139-3.212-4.994-3.212-8.136
		c0-6.605,5.375-11.977,11.98-11.977c6.605,0,11.979,5.372,11.979,11.977C26.979,18.205,25.705,21.114,23.647,23.268L23.647,23.268z
		 M23.647,23.268"/>
</g>
</svg>
