<?xml version="1.0" encoding="utf-8"?>
<!-- Generator: Adobe Illustrator 15.0.2, SVG Export Plug-In . SVG Version: 6.00 Build 0)  -->
<!DOCTYPE svg PUBLIC "-//W3C//DTD SVG 1.1//EN" "http://www.w3.org/Graphics/SVG/1.1/DTD/svg11.dtd">
<svg version="1.1" id="Layer_1" xmlns="http://www.w3.org/2000/svg" xmlns:xlink="http://www.w3.org/1999/xlink" x="0px" y="0px"
	 width="30px" height="24.87px" viewBox="0 0 30 24.87" enable-background="new 0 0 30 24.87" xml:space="preserve">
<g>
	<path fill="#FEDA00" d="M28.935,7.025h-1.762c-0.58,0-1.075,0.492-1.075,1.072c0,0,0.013,0.524,0.017,0.549l-0.587,0.632
		l-0.705-2.725c-0.447-1.72-1.998-2.929-3.774-2.929h-1.475V1.436C19.573,0.683,19.069,0,18.319,0h-6.664
		c-0.753,0-1.225,0.683-1.225,1.436v2.188h-1.5c-1.778,0-3.329,1.209-3.775,2.929L4.457,9.259L3.89,8.646
		c0-0.025,0.015-0.549,0.015-0.549c0-0.58-0.494-1.072-1.078-1.072H1.066C0.485,7.025,0,7.518,0,8.097V8.57
		c0,0.581,0.485,1.078,1.066,1.078h1.761c0.054,0,0.108-0.02,0.163-0.028l0.632,0.673c-1.251,0.325-2.173,1.464-2.173,2.814v4.734
		c0,1.443,1.059,2.64,2.453,2.862v3.013c0,0.635,0.492,1.154,1.13,1.154h3.053c0.639,0,1.171-0.517,1.171-1.154v-2.971h11.489v2.971
		c0,0.635,0.495,1.154,1.13,1.154h3.057c0.635,0,1.167-0.517,1.167-1.154v-3.003c1.392-0.21,2.454-1.417,2.454-2.872v-4.734
		c0-1.353-0.926-2.485-2.176-2.807l0.635-0.68c0.054,0.009,0.108,0.028,0.162,0.028h1.762C29.515,9.648,30,9.151,30,8.57V8.097
		C30,7.518,29.515,7.025,28.935,7.025L28.935,7.025z M5.609,17.178c-0.954,0-1.729-0.772-1.729-1.729
		c0-0.954,0.775-1.729,1.729-1.729s1.729,0.775,1.729,1.729C7.338,16.405,6.563,17.178,5.609,17.178L5.609,17.178z M20.744,16.16
		c0,0.59-0.479,1.068-1.068,1.068h-9.351c-0.59,0-1.069-0.479-1.069-1.068v-1.375c0-0.591,0.479-1.069,1.069-1.069h9.348
		c0.59,0,1.071,0.479,1.071,1.069V16.16z M6.231,10.204l0.817-3.163c0.22-0.857,0.996-1.463,1.879-1.463h12.121
		c0.887,0,1.659,0.606,1.879,1.463l0.82,3.163H6.231z M24.57,17.178c-0.958,0-1.729-0.772-1.729-1.729
		c0-0.954,0.771-1.729,1.729-1.729c0.953,0,1.729,0.775,1.729,1.729C26.299,16.405,25.523,17.178,24.57,17.178L24.57,17.178z
		 M24.57,17.178"/>
</g>
</svg>
