<?xml version="1.0" encoding="utf-8"?>
<!-- Generator: Adobe Illustrator 15.0.2, SVG Export Plug-In . SVG Version: 6.00 Build 0)  -->
<!DOCTYPE svg PUBLIC "-//W3C//DTD SVG 1.1//EN" "http://www.w3.org/Graphics/SVG/1.1/DTD/svg11.dtd">
<svg version="1.1" id="Layer_1" xmlns="http://www.w3.org/2000/svg" xmlns:xlink="http://www.w3.org/1999/xlink" x="0px" y="0px"
	 width="29.994px" height="30px" viewBox="0 0 29.994 30" enable-background="new 0 0 29.994 30" xml:space="preserve">
<g>
	<g>
		<path fill="#9E9E9E" d="M29.147,25.175l-6.876-6.877c-1.024,1.594-2.38,2.949-3.974,3.974l6.877,6.876
			c1.098,1.098,2.877,1.098,3.973,0C30.245,28.052,30.245,26.272,29.147,25.175L29.147,25.175z M29.147,25.175"/>
	</g>
	<path fill="#9E9E9E" d="M22.478,11.239C22.478,5.032,17.445,0,11.239,0C5.032,0,0,5.032,0,11.239
		c0,6.206,5.032,11.238,11.239,11.238C17.445,22.478,22.478,17.445,22.478,11.239L22.478,11.239z M11.239,19.668
		c-4.648,0-8.43-3.781-8.43-8.429c0-4.648,3.781-8.43,8.43-8.43c4.647,0,8.429,3.781,8.429,8.43
		C19.668,15.887,15.887,19.668,11.239,19.668L11.239,19.668z M11.239,19.668"/>
	<path fill="#9E9E9E" d="M4.683,11.239h1.873c0-2.582,2.101-4.683,4.683-4.683V4.683C7.625,4.683,4.683,7.625,4.683,11.239
		L4.683,11.239z M4.683,11.239"/>
</g>
</svg>
