<?xml version="1.0" encoding="utf-8"?>
<!-- Generator: Adobe Illustrator 15.0.2, SVG Export Plug-In . SVG Version: 6.00 Build 0)  -->
<!DOCTYPE svg PUBLIC "-//W3C//DTD SVG 1.1//EN" "http://www.w3.org/Graphics/SVG/1.1/DTD/svg11.dtd">
<svg version="1.1" id="Layer_1" xmlns="http://www.w3.org/2000/svg" xmlns:xlink="http://www.w3.org/1999/xlink" x="0px" y="0px"
	 width="30px" height="24.234px" viewBox="0 0 30 24.234" enable-background="new 0 0 30 24.234" xml:space="preserve">
<g>
	<path fill="#666666" d="M29.939,16.189l-3.302-5.228V1.344L25.293,0H4.707L3.362,1.344v9.617l-3.302,5.228H29.939z M23.949,2.688
		v6.71c-1.732-0.448-4.726-1-8.949-1c-4.224,0-7.217,0.553-8.949,1v-6.71H23.949z M23.949,2.688"/>
	<path fill="#666666" d="M0,17.844v2.688h3.132v3.702h2.688v-3.702H24.18v3.702h2.688v-3.702H30v-2.688H0z M0,17.844"/>
	<path fill="#666666" d="M13.909,7V5.434c0-0.93-1.349-1.684-3.013-1.684c-1.664,0-3.013,0.754-3.013,1.684v2.351
		c0,0,1.777-0.448,2.999-0.563C11.981,7.117,13.909,7,13.909,7L13.909,7z M13.909,7"/>
	<path fill="#666666" d="M22.117,7.784V5.434c0-0.93-1.349-1.684-3.013-1.684s-3.014,0.754-3.014,1.684V7
		c0,0,1.928,0.117,3.027,0.222C20.34,7.336,22.117,7.784,22.117,7.784L22.117,7.784z M22.117,7.784"/>
</g>
</svg>
