<?xml version="1.0" encoding="utf-8"?>
<!-- Generator: Adobe Illustrator 15.0.2, SVG Export Plug-In . SVG Version: 6.00 Build 0)  -->
<!DOCTYPE svg PUBLIC "-//W3C//DTD SVG 1.1//EN" "http://www.w3.org/Graphics/SVG/1.1/DTD/svg11.dtd">
<svg version="1.1" id="Layer_1" xmlns="http://www.w3.org/2000/svg" xmlns:xlink="http://www.w3.org/1999/xlink" x="0px" y="0px"
	 width="22.869px" height="30px" viewBox="0 0 22.869 30" enable-background="new 0 0 22.869 30" xml:space="preserve">
<g>
	<path fill="#DADADA" d="M2.579,20.111L0,27.412l4.672-1.558L7.328,30l2.611-7.394l-2.48-2.158L2.579,20.111z M2.579,20.111"/>
	<path fill="#DADADA" d="M20.291,20.111l-4.88,0.337l-2.481,2.158L15.54,30l2.657-4.146l4.672,1.558L20.291,20.111z M20.291,20.111"
		/>
	<path fill="#DADADA" d="M19.107,18.521l0.301-4.367l2.879-3.304l-2.879-3.304L19.107,3.18l-4.366-0.305L11.437,0L8.133,2.875
		L3.762,3.18L3.461,7.551L0.586,10.85l2.875,3.304l0.301,4.367l4.371,0.305l3.304,2.874l3.304-2.874L19.107,18.521z M11.377,16.871
		c-3.355,0-6.078-2.721-6.078-6.076c0-3.355,2.722-6.077,6.078-6.077c3.359,0,6.081,2.722,6.081,6.077
		C17.458,14.15,14.736,16.871,11.377,16.871L11.377,16.871z M11.377,16.871"/>
	<path fill="#DADADA" d="M9.367,8.225l0.264,1.197l1.292-0.61h0.015v5.347h1.543v-6.78h-1.316L9.367,8.225z M9.367,8.225"/>
</g>
</svg>
