<?xml version="1.0" encoding="utf-8"?>
<!-- Generator: Adobe Illustrator 15.0.2, SVG Export Plug-In . SVG Version: 6.00 Build 0)  -->
<!DOCTYPE svg PUBLIC "-//W3C//DTD SVG 1.1//EN" "http://www.w3.org/Graphics/SVG/1.1/DTD/svg11.dtd">
<svg version="1.1" id="Layer_1" xmlns="http://www.w3.org/2000/svg" xmlns:xlink="http://www.w3.org/1999/xlink" x="0px" y="0px"
	 width="30px" height="22.5px" viewBox="0 0 30 22.5" enable-background="new 0 0 30 22.5" xml:space="preserve">
<g>
	<path fill="#444444" d="M0,0v22.5h30V0H0z M5.625,20.625h-3.75v-3.75h3.75V20.625z M5.625,13.125h-3.75v-3.75h3.75V13.125z
		 M5.625,5.625h-3.75v-3.75h3.75V5.625z M22.5,20.625h-15V1.875h15V20.625z M28.125,20.625h-3.75v-3.75h3.75V20.625z M28.125,13.125
		h-3.75v-3.75h3.75V13.125z M28.125,5.625h-3.75v-3.75h3.75V5.625z M11.25,5.625v11.25l7.5-5.625L11.25,5.625z M11.25,5.625"/>
</g>
</svg>
